<svg id="Layer_1" enable-background="new 0 0 512 512" height="512" viewBox="0 0 512 512" width="512" xmlns="http://www.w3.org/2000/svg"><g><path d="m383.367 414.378c-14.181-6.768-32.491-12.239-53.621-16.092 6.166-6.386 12.471-13.215 18.792-20.465 25.244-28.957 45.387-58.541 59.87-87.933 18.309-37.156 27.592-74.128 27.592-109.888 0-99.252-80.748-180-180-180s-180 80.748-180 180c0 35.76 9.283 72.732 27.592 109.889 14.483 29.392 34.626 58.976 59.87 87.933 6.32 7.25 12.626 14.079 18.792 20.465-21.13 3.853-39.44 9.324-53.621 16.092-26.971 12.871-32.633 27.563-32.633 37.621 0 12.736 8.809 30.854 50.771 44.842 29.325 9.775 68.116 15.158 109.229 15.158s79.904-5.383 109.229-15.158c41.962-13.988 50.771-32.106 50.771-44.842 0-10.058-5.662-24.75-32.633-37.622zm-287.367-234.378c0-88.224 71.776-160 160-160s160 71.776 160 160c0 74.246-44.723 141.224-82.241 184.338-32.229 37.036-64.849 63.338-77.759 73.2-12.913-9.865-45.533-36.167-77.759-73.199-37.518-43.115-82.241-110.093-82.241-184.339zm262.904 297.869c-27.339 9.112-63.884 14.131-102.904 14.131s-75.565-5.019-102.904-14.131c-27.381-9.127-37.096-19.64-37.096-25.869 0-10.389 26.061-28.28 83.835-36.274 8.556 8.132 16.523 15.211 23.485 21.137-10.608 3.665-17.32 9.085-17.32 15.137 0 11.05 22.39 20 50 20s50-8.95 50-20c0-6.052-6.712-11.472-17.32-15.137 6.962-5.926 14.929-13.005 23.485-21.137 57.774 7.994 83.835 25.885 83.835 36.274 0 6.229-9.715 16.742-37.096 25.869z"/><path d="m396 180c0-77.196-62.804-140-140-140s-140 62.804-140 140 62.804 140 140 140 140-62.804 140-140zm-260 0c0-66.168 53.832-120 120-120s120 53.832 120 120-53.832 120-120 120-120-53.832-120-120z"/><path d="m266 250c0 5.523 4.477 10 10 10h40c5.523 0 10-4.477 10-10v-50h20c4.152 0 7.872-2.565 9.347-6.446s.399-8.27-2.704-11.028l-90-80c-3.789-3.368-9.498-3.368-13.287 0l-90 80c-3.103 2.758-4.179 7.147-2.704 11.028s5.196 6.446 9.348 6.446h20v50c0 5.523 4.477 10 10 10h40c5.523 0 10-4.477 10-10v-30h20zm-30-50c-5.523 0-10 4.477-10 10v30h-20v-50c0-5.523-4.477-10-10-10h-3.698l63.698-56.621 63.698 56.621h-3.698c-5.523 0-10 4.477-10 10v50h-20v-30c0-5.523-4.477-10-10-10z"/></g></svg>