<svg id="Capa_1" enable-background="new 0 0 512.996 512.996" height="512" viewBox="0 0 512.996 512.996" width="512" xmlns="http://www.w3.org/2000/svg"><g><g><path d="m260.084 68.317c-1.463-1.259-3.205-2.011-5.003-2.272-1.798.261-3.54 1.013-5.003 2.272l-171.08 147.244v237.376h352.165v-237.375z" fill="#ffd15b"/><path d="m486.374 497.496v-36.558c0-4.418-3.582-8-8-8h-446.586c-4.418 0-8 3.582-8 8v36.558c0 4.418 3.582 8 8 8h446.587c4.417 0 7.999-3.581 7.999-8z" fill="#8d9ca8"/><path d="m262.919 68.317c-3.691-3.177-9.15-3.177-12.84 0l-14.58 12.548 156.5 134.696v237.376h42v-237.375z" fill="#ffc344"/><path d="m391.998 452.938h-271v-99.442c0-3.314 2.686-6 6-6h259c3.314 0 6 2.686 6 6z" fill="#60b7ff"/><path d="m218.668 347.496h75.661v105.442h-75.661z" fill="#b3dafe"/><path d="m233.583 257.837h-39.786c-18.012 0-32.613-14.601-32.613-32.613 0-18.012 14.601-32.613 32.613-32.613h39.786z" fill="#fe646f"/><path d="m298.111 170.712-64.528 21.899v65.225l64.528 21.899c2.151.73 4.382-.869 4.382-3.141v-102.741c.001-2.271-2.231-3.87-4.382-3.141z" fill="#b3dafe"/><path d="m193.797 257.837c-.199 0-.395-.011-.594-.015v50.565c0 6.513 5.275 11.795 11.788 11.804h.341c6.525.009 11.819-5.279 11.819-11.804v-50.55z" fill="#0593fc"/><g><path d="m470.727 247.173-207.808-178.856c-3.691-3.177-9.15-3.177-12.84 0l-207.809 178.856c-4.12 3.546-10.334 3.08-13.88-1.039l-16.051-18.649c-3.546-4.12-3.08-10.334 1.039-13.88l236.7-203.722c3.691-3.177 9.15-3.177 12.84 0l236.699 203.722c4.12 3.546 4.585 9.76 1.039 13.88l-16.051 18.649c-3.545 4.119-9.759 4.585-13.878 1.039z" fill="#fd4755"/></g><path d="m481.209 452.938h-34.016c4.418 0 8 3.582 8 8v36.558c0 4.418-3.582 8-8 8h34.016c4.418 0 8-3.582 8-8v-36.558c0-4.418-3.582-8-8-8z" fill="#7a8c98"/><g><path d="m499.618 213.604-236.699-203.722c-3.691-3.176-9.15-3.176-12.84 0l-10.588 9.113 226.112 194.609c4.12 3.546 4.585 9.76 1.039 13.88l-7.996 9.291 12.081 10.398c4.12 3.546 10.334 3.081 13.88-1.039l16.051-18.649c3.545-4.12 3.08-10.335-1.04-13.881z" fill="#fb2b3a"/></g></g><g><path d="m286.738 275.874c-1.332 3.922.769 8.182 4.69 9.513l4.282 1.454c1.126.38 2.293.573 3.471.573 5.962 0 10.812-4.854 10.812-10.819v-102.741c0-5.966-4.85-10.819-10.811-10.819-1.187 0-2.361.195-3.481.576l-63.357 21.501h-38.547c-22.118 0-40.113 17.994-40.113 40.112 0 19.346 13.768 35.538 32.02 39.292v43.871c0 10.63 8.648 19.289 19.288 19.304h.33.03c5.149 0 9.992-2.003 13.636-5.643 3.653-3.647 5.665-8.499 5.665-13.661v-43.05h7.691l25.942 8.804c3.92 1.325 8.181-.769 9.513-4.692 1.331-3.923-.77-8.182-4.692-9.513l-22.023-7.474v-54.476l53.91-18.295v91.182c-3.533-.554-7.066 1.495-8.256 5.001zm-118.053-50.65c0-13.847 11.266-25.112 25.113-25.112h32.286v50.226h-8.93-23.317-.01-.006l-.468-.015c-.018 0-.035.002-.052.002-13.619-.268-24.616-11.421-24.616-25.101zm40.968 83.163c0 1.151-.449 2.233-1.263 3.046-.812.812-1.891 1.258-3.049 1.258-.002 0-.004 0-.007 0h-.331c-2.37-.003-4.298-1.934-4.298-4.304v-43.05h8.949v43.05z"/><path d="m324.779 221.727c0 4.143 3.357 7.5 7.5 7.5h19.532c4.143 0 7.5-3.357 7.5-7.5s-3.357-7.5-7.5-7.5h-19.532c-4.142 0-7.5 3.357-7.5 7.5z"/><path d="m335.145 201.397c1.661 0 3.334-.55 4.724-1.679l13.812-11.22c3.216-2.611 3.704-7.335 1.093-10.55-2.611-3.216-7.335-3.707-10.55-1.093l-13.812 11.22c-3.216 2.611-3.704 7.335-1.093 10.55 1.482 1.826 3.644 2.772 5.826 2.772z"/><path d="m339.868 243.734c-3.214-2.614-7.938-2.123-10.55 1.093-2.611 3.215-2.123 7.938 1.093 10.55l13.812 11.22c1.39 1.13 3.063 1.679 4.724 1.679 2.181 0 4.344-.946 5.826-2.771 2.611-3.215 2.123-7.938-1.093-10.55z"/><path d="m2.456 221.068c0 4.147 1.491 8.163 4.198 11.309l16.05 18.648c3.298 3.832 8.09 6.03 13.148 6.03 4.146 0 8.163-1.491 11.309-4.198l24.336-20.946v145.941c0 4.143 3.358 7.5 7.5 7.5s7.5-3.357 7.5-7.5v-158.85l168.472-145c.516-.443 1.064-.551 1.458-.562.022-.001.048-.005.069-.005.112 0 .24.012.377.033.349.055.759.197 1.15.533l168.473 145v226.436h-27v-91.941c0-7.444-6.056-13.5-13.5-13.5h-91.67-75.66-91.669c-7.444 0-13.5 6.056-13.5 13.5v91.941h-27v-32.585c0-4.143-3.358-7.5-7.5-7.5s-7.5 3.357-7.5 7.5v32.585h-39.709c-8.547 0-15.5 6.953-15.5 15.5v36.559c0 8.547 6.953 15.5 15.5 15.5h449.421c8.547 0 15.5-6.953 15.5-15.5v-36.559c0-8.547-6.953-15.5-15.5-15.5h-39.711v-213.525l24.336 20.945c3.145 2.707 7.161 4.197 11.31 4.197 5.057 0 9.849-2.197 13.147-6.028l16.051-18.649c2.707-3.146 4.198-7.161 4.198-11.309 0-5.059-2.198-9.852-6.029-13.148l-20.558-17.693c-3.142-2.703-7.876-2.347-10.577.792-2.702 3.14-2.348 7.875.792 10.577l20.559 17.693c.708.609.813 1.376.813 1.779 0 .395-.099.979-.567 1.523l-16.05 18.648c-.61.709-1.377.814-1.779.814-.396 0-.98-.099-1.524-.566l-36.728-31.611-43.919-37.8-127.162-109.443c-3.145-2.707-7.162-4.197-11.312-4.197s0 0 0 0c-.377 0-.752.026-1.126.05-3.747.245-7.329 1.687-10.187 4.147l-207.809 178.855c-.545.469-1.13.567-1.524.567-.403 0-1.169-.105-1.779-.814l-16.051-18.649c-.468-.545-.567-1.129-.567-1.523 0-.403.106-1.17.814-1.779l236.7-203.723c.545-.469 1.132-.567 1.528-.567s.982.099 1.527.567l189.615 163.196c3.139 2.702 7.875 2.348 10.577-.792s2.348-7.875-.792-10.577l-189.615-163.197c-3.147-2.707-7.164-4.197-11.312-4.197-4.149 0-8.167 1.491-11.313 4.198l-236.699 203.722c-3.832 3.297-6.03 8.09-6.03 13.148zm382.042 224.37h-82.67v-90.441h82.67zm-97.67-90.442v90.441h-60.66v-90.441zm-158.329 0h82.669v90.441h-82.669zm353.21 105.942v36.559c0 .275-.225.5-.5.5h-449.421c-.276 0-.5-.225-.5-.5v-36.559c0-.275.224-.5.5-.5h47.211 42 97.669 75.66 97.67 42 47.211c.275 0 .5.224.5.5z"/></g></g></svg>