<svg height="512pt" viewBox="-64 0 512 512" width="512pt" xmlns="http://www.w3.org/2000/svg"><path d="m104 195.3125-29.65625-29.65625 11.3125-11.3125 18.34375 18.34375 42.34375-42.34375 11.3125 11.3125zm0 0"/><path d="m176 144h136v16h-136zm0 0"/><path d="m176 176h72v16h-72zm0 0"/><path d="m104 275.3125-29.65625-29.65625 11.3125-11.3125 18.34375 18.34375 42.34375-42.34375 11.3125 11.3125zm0 0"/><path d="m176 224h136v16h-136zm0 0"/><path d="m176 256h88v16h-88zm0 0"/><path d="m104 355.3125-29.65625-29.65625 11.3125-11.3125 18.34375 18.34375 42.34375-42.34375 11.3125 11.3125zm0 0"/><path d="m176 304h136v16h-136zm0 0"/><path d="m176 336h40v16h-40zm0 0"/><path d="m344 0h-304c-22.082031.0273438-39.9726562 17.917969-40 40v432c.0273438 22.082031 17.917969 39.972656 40 40h304c22.082031-.027344 39.972656-17.917969 40-40v-432c-.027344-22.082031-17.917969-39.9726562-40-40zm24 472c0 13.253906-10.746094 24-24 24h-304c-13.253906 0-24-10.746094-24-24v-432c0-13.253906 10.746094-24 24-24h304c13.253906 0 24 10.746094 24 24zm0 0"/><path d="m112 32h128v16h-128zm0 0"/><path d="m256 32h16v16h-16zm0 0"/><path d="m344 64h-304v384h304zm-216 16h128v8c0 4.417969-3.582031 8-8 8h-112c-4.417969 0-8-3.582031-8-8zm120 347.535156v-75.535156h69.726562zm80 4.464844h-62.34375l62.34375-67.535156zm0-96h-96v96h-176v-352h56v8c0 13.253906 10.746094 24 24 24h112c13.253906 0 24-10.746094 24-24v-8h56zm0 0"/><path d="m184 464h16v16h-16zm0 0"/></svg>