<svg id="Capa_1" enable-background="new 0 0 511.943 511.943" height="512" viewBox="0 0 511.943 511.943" width="512" xmlns="http://www.w3.org/2000/svg"><g id="XMLID_1357_"><g id="XMLID_301_"><path id="XMLID_310_" d="m348.288 348.889c-13.272-22.984-42.767-30.888-65.753-17.618l-40.718 23.508c-3.959 2.285-9.042.925-11.328-3.035l-91.667-158.771c-2.286-3.96-.924-9.042 3.036-11.328l40.717-23.508c22.986-13.271 30.89-42.768 17.618-65.753l-39.438-68.31c-13.269-22.985-42.766-30.889-65.752-17.619l-13.834 7.987c-77.551 44.775-104.217 144.295-59.443 221.846l112.286 194.485c30.048 52.044 84.746 81.169 140.918 81.169 27.531 0 55.421-6.998 80.929-21.726l13.833-7.987c11.135-6.429 19.1-16.809 22.427-29.227 3.328-12.42 1.62-25.392-4.809-36.526zm-243.285-325.113c13.436-7.757 30.676-3.136 38.433 10.298l39.438 68.31c7.757 13.435 3.137 30.675-10.298 38.433l-32.057 18.508-66.794-115.692c5.437-4.319 31.278-19.857 31.278-19.857zm169.894 468.17c-49.25-.003-97.22-25.543-123.565-71.173l-112.286-194.485c-32.129-55.648-22.298-124.19 19.599-168.775l65.469 113.396c-7.224 8.846-8.652 21.601-2.612 32.063l91.667 158.771c3.779 6.545 9.88 11.227 17.18 13.183 3.946 1.057 7.986 1.241 11.899.598l65.047 112.666c-10.717 2.517-21.587 3.757-32.398 3.756zm97.903-44.12c-1.944 7.259-6.601 13.325-13.108 17.083 0 0-26.381 14.6-32.842 17.149l-66.372-114.96 32.058-18.508c13.435-7.757 30.676-3.137 38.433 10.298l39.021 67.588c3.757 6.51 4.755 14.092 2.81 21.35z"/><path id="XMLID_329_" d="m379.006 199.364c5.522 0 10-4.478 10-10v-66.934c0-5.522-4.478-10-10-10s-10 4.478-10 10v66.935c0 5.522 4.478 9.999 10 9.999z"/><path id="XMLID_330_" d="m379.002 91.76c2.641 0 5.21-1.07 7.07-2.93s2.93-4.431 2.93-7.07c0-2.63-1.069-5.21-2.93-7.07-1.86-1.859-4.44-2.93-7.07-2.93s-5.21 1.07-7.069 2.93c-1.86 1.86-2.931 4.44-2.931 7.07 0 2.64 1.07 5.22 2.931 7.07 1.859 1.86 4.439 2.93 7.069 2.93z"/><path id="XMLID_332_" d="m379.006 0c-73.302 0-132.936 59.635-132.936 132.937 0 35.355 13.565 68.337 38.3 93.358v34.832c0 3.55 1.882 6.833 4.943 8.628 1.561.914 3.308 1.372 5.057 1.372 1.684 0 3.368-.425 4.887-1.275l26.733-14.974c16.732 7.299 34.541 10.995 53.017 10.995 18.853 0 37.074-3.869 54.158-11.499 5.043-2.252 7.305-8.166 5.053-13.209-2.252-5.042-8.163-7.306-13.209-5.053-14.501 6.477-29.979 9.761-46.002 9.761-17.213 0-33.736-3.77-49.11-11.208-2.94-1.424-6.392-1.319-9.241.277l-16.285 9.121v-21.968c0-2.742-1.126-5.363-3.114-7.252-22.69-21.545-35.186-50.634-35.186-81.907-.001-62.273 50.662-112.936 112.935-112.936s112.937 50.663 112.937 112.937c0 15.854-3.218 31.182-9.562 45.558-2.23 5.053.058 10.956 5.11 13.187 5.055 2.232 10.957-.059 13.186-5.11 7.476-16.936 11.266-34.981 11.266-53.634 0-73.303-59.635-132.938-132.937-132.938z"/><path id="XMLID_333_" d="m466.122 209.68c-2.63 0-5.21 1.061-7.07 2.93-1.859 1.86-2.93 4.431-2.93 7.07 0 2.63 1.07 5.21 2.93 7.07 1.86 1.859 4.431 2.93 7.07 2.93 2.63 0 5.21-1.07 7.07-2.93 1.859-1.87 2.93-4.44 2.93-7.07 0-2.64-1.07-5.21-2.93-7.07-1.86-1.87-4.44-2.93-7.07-2.93z"/></g></g></svg>