<?xml version="1.0" encoding="iso-8859-1"?>
<!-- Generator: Adobe Illustrator 19.0.0, SVG Export Plug-In . SVG Version: 6.00 Build 0)  -->
<svg version="1.1" id="Layer_1" xmlns="http://www.w3.org/2000/svg" xmlns:xlink="http://www.w3.org/1999/xlink" x="0px" y="0px"
	 viewBox="0 0 512 512" style="enable-background:new 0 0 512 512;" xml:space="preserve">
<g>
	<g>
		<path d="M300.468,301.084c-1.249-1.604-3.086-2.648-5.103-2.898l-34.602-4.287c4.5-3.786,7.383-9.033,8.11-14.901
			c0.763-6.163-0.918-12.255-4.737-17.153c-3.818-4.898-9.315-8.016-15.479-8.78c-6.154-0.761-12.255,0.919-17.153,4.738h0.001
			c-0.41,0.32-0.804,0.679-1.192,1.056c-0.283-0.46-0.577-0.904-0.897-1.313c-3.818-4.898-9.315-8.016-15.479-8.78
			c-6.162-0.764-12.255,0.919-17.153,4.737c-4.898,3.819-8.016,9.316-8.78,15.479c-0.727,5.869,0.787,11.66,4.228,16.43
			l-31.732-3.931c-4.194-0.518-8.03,2.463-8.55,6.665l-15.216,122.812c-0.249,2.018,0.313,4.052,1.562,5.655
			s3.086,2.645,5.103,2.895l134.863,16.708c0.32,0.04,0.638,0.059,0.953,0.059c3.813,0,7.117-2.843,7.598-6.724l15.216-122.812
			C302.28,304.721,301.717,302.687,300.468,301.084z M203.221,270.864c0.26-2.099,1.322-3.972,2.991-5.272
			c1.405-1.096,3.099-1.675,4.852-1.675c0.328,0,0.659,0.02,0.99,0.061c2.097,0.26,3.968,1.321,5.267,2.986
			c1.264,1.75,1.949,8.1,1.838,15.23c-6.906-1.635-12.967-3.868-14.325-5.49C203.534,275.037,202.96,272.963,203.221,270.864z
			 M184.737,409.177l-31.844-3.945l3.376-27.252l31.844,3.945L184.737,409.177z M189.998,366.709l-27.252-3.377l2.808-22.661
			l27.253,3.376L189.998,366.709z M194.691,328.833l-31.844-3.945l3.376-27.253l31.844,3.945L194.691,328.833z M231.625,341.129
			c0,0.001,0,0.002-0.001,0.003c-0.001,0.001,0,0.002,0,0.003l-9.011,72.733l-22.661-2.808l4.318-34.855
			c0-0.001,0-0.003,0.001-0.004c0-0.001,0-0.002,0-0.004l4.69-37.857c0.001-0.006,0.002-0.011,0.003-0.016
			c0.001-0.005,0-0.011,0.001-0.017l4.316-34.843l3.235,0.402l19.426,2.407L231.625,341.129z M235.435,284.218
			c1.633-6.946,3.848-12.94,5.501-14.328c1.668-1.299,3.736-1.87,5.838-1.61c2.098,0.26,3.971,1.322,5.271,2.991
			c1.3,1.668,1.873,3.743,1.613,5.841c-0.26,2.099-1.322,3.972-2.982,5.267C248.93,283.645,242.57,284.333,235.435,284.218z
			 M245.898,350.625l27.251,3.377l-2.808,22.661l-27.251-3.376L245.898,350.625z M272.542,420.056l-34.713-4.301l3.376-27.252
			l34.713,4.301L272.542,420.056z M282.496,339.711l-34.713-4.301l3.376-27.253l34.713,4.301L282.496,339.711z"/>
	</g>
</g>
<g>
	<g>
		<path d="M460.22,440.5l-55.498-261.887c-0.822-3.878-4.464-6.492-8.402-6.023l-25.294,2.997L306.31,61.351l-9.863-35.061
			c-4.009-14.25-15.626-24.217-30.32-26.011c-6.81-0.832-13.388,0.22-19.226,2.844c-14.272,2.06-25.523,11.867-29.475,25.817
			l-6.86,24.227l-67.777,119.159l-26.226-3.249c-3.931-0.493-7.591,2.104-8.433,5.978L51.885,433.67
			c-2.411,11.088-0.031,22.755,6.532,32.012c6.563,9.257,16.785,15.366,28.046,16.762l236.091,29.251
			c1.65,0.204,3.302,0.306,4.95,0.306c9.592,0,18.977-3.421,26.338-9.715c2.957-2.529,5.494-5.46,7.583-8.668l66.35-7.862
			c10.495-1.244,20.046-6.883,26.204-15.472C460.136,461.694,462.41,450.839,460.22,440.5z M354.513,177.544l-15.018,1.779
			l-15.807-56.19L354.513,177.544z M224.81,59.137l18.956-33.326c2.037-3.581,4.708-6.072,7.6-7.732
			c6.365-0.223,14.16,2.383,18.744,10.474l21.945,38.737l32.029,113.86l-56.265,6.667l-76.754-9.51L224.81,59.137z M193.079,114.922
			L175.671,176.4l-16.404-2.032L193.079,114.922z M352.664,472.336c-0.231,7.151-3.353,13.648-8.788,18.297
			c-5.435,4.649-12.341,6.722-19.437,5.846L88.348,467.229c-7.099-0.88-13.286-4.578-17.423-10.413
			c-4.138-5.835-5.578-12.898-4.058-19.887l54.756-251.776l24.376,3.02c0.015,0.002,0.031,0.004,0.046,0.006l34.167,4.234
			c0.001,0,0.003,0,0.004,0l81.818,10.136c1.337,0.716,2.895,1.049,4.512,0.858l1.232-0.146l93.229,11.55L352.664,472.336z
			 M441.518,461.35c-3.708,5.171-9.229,8.431-15.548,9.18l-58.407,6.921c0.227-1.524,0.375-3.064,0.425-4.618l8.569-264.522
			c0.129-3.962-2.785-7.368-6.719-7.856l-25.278-3.132l-0.861-3.06l47.475-5.626l54.047,255.04
			C446.54,449.903,445.226,456.179,441.518,461.35z"/>
	</g>
</g>
<g>
</g>
<g>
</g>
<g>
</g>
<g>
</g>
<g>
</g>
<g>
</g>
<g>
</g>
<g>
</g>
<g>
</g>
<g>
</g>
<g>
</g>
<g>
</g>
<g>
</g>
<g>
</g>
<g>
</g>
</svg>
