<svg height="512pt" viewBox="0 0 512 512.00101" width="512pt" xmlns="http://www.w3.org/2000/svg"><path d="m182.410156 270.199219v-14.03125c0-4.199219-3.402344-7.601563-7.597656-7.601563-4.199219 0-7.601562 3.402344-7.601562 7.601563v14.03125c0 4.195312 3.402343 7.597656 7.601562 7.597656 4.195312 0 7.597656-3.402344 7.597656-7.597656zm0 0"/><path d="m110.574219 256.167969c0-4.195313-3.402344-7.597657-7.597657-7.597657-4.199218 0-7.601562 3.402344-7.601562 7.597657v14.03125c0 4.199219 3.402344 7.601562 7.601562 7.601562 4.195313 0 7.597657-3.402343 7.597657-7.601562zm0 0"/><path d="m215.273438 331.710938c-2.417969 3.433593-1.597657 8.171874 1.835937 10.589843 1.328125.9375 2.855469 1.390625 4.371094 1.390625 2.386719 0 4.738281-1.125 6.21875-3.226562 9.050781-12.847656 15.101562-27.296875 17.925781-42.535156 18.1875-2.554688 32.160156-16.984376 32.160156-34.347657 0-16.773437-13.042968-30.8125-30.328125-34.046875v-34.109375c11.21875-8.761719 19.671875-19.625 25.246094-32.527343 19.273437-44.625-3.046875-97.0625-4.007813-99.273438-1.027343-2.367188-3.1875-4.054688-5.738281-4.472656-2.550781-.417969-5.136719.488281-6.867187 2.402344-22.167969 24.515624-60.097656 20.628906-100.25 16.515624-9.875-1.011718-20.09375-2.058593-30.113282-2.667968-29.652343-1.800782-56.667968 14.230468-69.238281 40.414062-10.855469-1.554687-21.835937 1.117188-30.945312 7.6875-10.984375 7.929688-17.433594 20.234375-17.691407 33.765625-.546874 28.660157 11.464844 58.34375 18.519532 73.21875-15.277344 4.488281-26.371094 17.625-26.371094 33.09375 0 17.359375 13.96875 31.789063 32.148438 34.34375 3.949218 21.414063 14.25 41.117188 29.976562 56.84375 10.710938 10.710938 23.273438 18.90625 36.957031 24.292969v18.511719h-39.179687c-28.132813 0-51.019532 22.886719-51.019532 51.019531v55.808594c0 4.195312 3.402344 7.597656 7.597657 7.597656h244.726562c4.195313 0 7.597657-3.402344 7.597657-7.597656v-55.808594c0-28.132812-22.886719-51.019531-51.019532-51.019531h-39.175781v-18.566407c10.679687-4.191406 20.707031-10.054687 29.625-17.46875 3.230469-2.679687 3.671875-7.472656.988281-10.703124-2.683594-3.226563-7.472656-3.667969-10.703125-.984376-16.699219 13.875-37.875 21.515626-59.628906 21.515626-24.9375 0-48.382813-9.710938-66.019531-27.347657-17.636719-17.632812-27.347656-41.082031-27.347656-66.027343v-34.601563c13.75-2.289063 25.414062-10.867187 34.03125-25.199219 3.261718-5.425781 5.570312-10.839844 7.132812-15.199218 20.257812 9.390624 73.726562 29.152343 130.722656 8.621093 5.273438-1.902343 10.21875-4.066406 14.847656-6.476562v72.855469c.003907 19.371093-5.871093 37.949218-16.984374 53.71875zm-42.261719 81.0625h9.273437l-9.582031 33.632812-21.402344-21.402344zm36.25 0 2.101562 53.296874-22.074219 5.519532c-2.65625.664062-4.75 2.707031-5.480468 5.34375-.730469 2.640625.011718 5.46875 1.949218 7.402344l12.464844 12.464843h-24.074218l23.941406-84.027343zm-115.382813 64.160156c-.730468-2.640625-2.824218-4.679688-5.480468-5.34375l-22.074219-5.519532 2.105469-53.296874h11.175781l23.941406 84.027343h-24.082031l12.464844-12.464843c1.9375-1.9375 2.679687-4.765626 1.949218-7.402344zm44.96875-42.886719 11.570313 11.570313-12.144531 15.007812-11.421876-14.582031zm29.089844 29.089844-7.074219 24.828125-12.378906-15.800782 12.742187-15.738281zm-51.914062-6.265625 13.015624 16.609375-12.082031 14.925781-7.199219-25.269531zm23.226562 28.152344 9.226562 11.777343h-18.761718zm-34.257812-38.617188-9.582032-33.632812h9.273438l21.710937 12.230468zm-80.910157 2.1875c0-17.457031 12.554688-32.027344 29.109375-35.179688l-2.296875 58.230469c-.144531 3.597657 2.257813 6.800781 5.75 7.675781l15.046875 3.761719-13.71875 13.71875h-33.890625zm229.523438 0v48.207031h-33.890625l-13.71875-13.71875 15.046875-3.761719c3.492187-.875 5.890625-4.078124 5.75-7.675781l-2.296875-58.230469c16.554687 3.152344 29.109375 17.722657 29.109375 35.179688zm-90.191407-64.859375v17l-24.566406 13.839844-24.566406-13.839844v-16.957031c7.980469 1.839844 16.222656 2.789062 24.609375 2.789062 8.300781 0 16.527344-.972656 24.523437-2.832031zm-148.214843-120.152344c0-8.488281 6.320312-15.722656 15.125-18.417969v32.828126c0 1.347656.03125 2.691406.082031 4.03125-8.84375-2.675782-15.207031-9.929688-15.207031-18.441407zm197.0625-66.269531c-64.191407 23.125-125.859375-11.4375-126.46875-11.785156-2.109375-1.210938-4.671875-1.335938-6.890625-.34375-2.21875.992187-3.832032 2.992187-4.335938 5.371094-.078125.359374-7.5625 34.269531-32.21875 37.957031-5.585937-11.089844-19.847656-42.320313-19.300781-70.953125.167969-8.703125 4.316406-16.625 11.390625-21.726563 4.785156-3.453125 10.367188-5.234375 16.058594-5.234375 2.75 0 5.527344.414063 8.25 1.261719 3.855468 1.199219 7.972656-.824219 9.378906-4.605469 8.738281-23.472656 31.519531-38.222656 56.679688-36.679687 9.707031.589843 19.761718 1.621093 29.488281 2.617187 37.808593 3.875 76.773437 7.863282 104.125-13.167968 5.074219 16.355468 12.324219 49.164062.304687 76.914062-8.050781 18.585938-23.683594 32.167969-46.460937 40.375zm50.324219 66.269531c0 8.511719-6.359376 15.765625-15.203126 18.441407.046876-1.339844.074219-2.683594.074219-4.03125v-32.828126c8.808594 2.695313 15.128907 9.929688 15.128907 18.417969zm0 0"/><path d="m138.890625 331.453125c10.917969 0 21.835937-4.15625 30.144531-12.464844 2.96875-2.96875 2.96875-7.78125 0-10.75-2.964844-2.96875-7.777344-2.96875-10.746094 0-10.695312 10.695313-28.097656 10.695313-38.792968 0-2.96875-2.96875-7.78125-2.96875-10.746094 0-2.96875 2.96875-2.96875 7.78125 0 10.75 8.308594 8.308594 19.226562 12.464844 30.140625 12.464844zm0 0"/><path d="m400.28125 0c-61.445312 0-111.433594 45.835938-111.433594 102.175781 0 56.339844 49.988282 102.175781 111.433594 102.175781 10.910156 0 21.6875-1.441406 32.042969-4.289062 4.046875-1.109375 6.425781-5.292969 5.316406-9.339844-1.113281-4.046875-5.296875-6.425781-9.34375-5.316406-9.042969 2.484375-18.46875 3.746094-28.015625 3.746094-53.0625 0-96.234375-39.019532-96.234375-86.976563 0-47.960937 43.167969-86.976562 96.234375-86.976562s96.238281 39.019531 96.238281 86.976562c0 29.394531-16.265625 56.597657-43.507812 72.761719-3.609375 2.144531-4.796875 6.804688-2.65625 10.414062 2.140625 3.609376 6.804687 4.800782 10.414062 2.65625 31.902344-18.929687 50.949219-51.015624 50.949219-85.832031 0-56.339843-49.992188-102.175781-111.4375-102.175781zm0 0"/><path d="m297.914062 182.675781c-13.96875 0-25.332031 11.363281-25.332031 25.332031s11.363281 25.332032 25.332031 25.332032 25.332032-11.363282 25.332032-25.332032-11.363282-25.332031-25.332032-25.332031zm0 35.464844c-5.585937 0-10.132812-4.546875-10.132812-10.132813 0-5.585937 4.546875-10.132812 10.132812-10.132812 5.585938 0 10.132813 4.546875 10.132813 10.132812 0 5.585938-4.546875 10.132813-10.132813 10.132813zm0 0"/><path d="m463.941406 148.878906 18.015625-75.503906c.695313-2.902344-.375-5.9375-2.730469-7.765625-2.355468-1.828125-5.5625-2.113281-8.199218-.722656l-32.417969 17.054687-33.203125-30.320312c-2.90625-2.648438-7.347656-2.648438-10.25 0l-33.203125 30.320312-32.421875-17.054687c-2.636719-1.390625-5.84375-1.105469-8.199219.722656s-3.421875 4.863281-2.730469 7.765625l18.019532 75.503906c.816406 3.421875 3.871094 5.835938 7.390625 5.835938h112.535156c3.519531 0 6.578125-2.414063 7.394531-5.835938zm-113.929687-9.363281-12.738281-53.382813 22.324218 11.746094c2.835938 1.492188 6.300782 1.042969 8.664063-1.113281l32.019531-29.238281 32.019531 29.238281c2.363281 2.160156 5.828125 2.601563 8.660157 1.113281l22.328124-11.746094-12.738281 53.382813zm0 0"/></svg>