<svg height="681pt" viewBox="-42 -21 681 681.25183" width="681pt" xmlns="http://www.w3.org/2000/svg"><path d="m459.75 637.257812c-5.882812 0-10.660156-4.777343-10.660156-10.664062v-112.308594c0-2.757812 1.074218-5.414062 2.988281-7.398437 2.257813-2.339844 223.621094-235.75 62.527344-406.796875-49.671875-52.730469-122.941407-81.90625-200.953125-80.09375-108.835938 2.5625-238.570313 47.527344-238.570313 247.199218 0 1.488282-.3125 2.957032-.925781 4.320313l-54.652344 123.210937c-1.03125 2.324219-1.132812 4.15625-.300781 5.429688 1.019531 1.570312 4.042969 3.414062 9.222656 3.414062h47.917969c13.054688 0 21.066406 15.109376 21.066406 25.941407v81.699219c0 21.746093 17.796875 41.550781 37.347656 41.550781h133.164063c5.886719 0 10.65625 4.773437 10.65625 10.660156v63.171875c0 5.886719-4.769531 10.664062-10.65625 10.664062s-10.65625-4.777343-10.65625-10.664062v-52.511719h-122.507813c-31.246093 0-58.65625-29.375-58.65625-62.871093v-81.699219c0-1.140625-.871093-3.367188-1.714843-4.628907h-45.960938c-11.625 0-21.753906-4.898437-27.09375-13.109374-4.796875-7.375-5.277343-16.746094-1.3046872-25.695313l53.7460942-121.160156c.523437-98.261719 35.429687-260.960938 259.382812-266.226563 84.097656-2.210937 163.164062 29.660156 216.96875 86.777344 164.15625 174.300781-32.644531 403.167969-59.714844 432.988281v108.136719c-.003906 5.886719-4.777344 10.664062-10.660156 10.664062zm0 0"/><path d="m318.421875 429.371094c-90.128906 0-163.457031-73.328125-163.457031-163.460938 0-90.132812 73.328125-163.464844 163.457031-163.464844 90.136719 0 163.464844 73.332032 163.464844 163.464844.007812 90.132813-73.328125 163.460938-163.464844 163.460938zm0-305.609375c-78.378906 0-142.148437 63.765625-142.148437 142.148437 0 78.382813 63.769531 142.152344 142.148437 142.152344 78.386719 0 142.152344-63.777344 142.152344-142.152344 0-78.378906-63.765625-142.148437-142.152344-142.148437zm0 0"/><path d="m406.195312 258.085938c-5.882812 0-10.652343-4.769532-10.652343-10.652344 0-11.953125-9.722657-21.679688-21.675781-21.679688-11.960938 0-21.683594 9.722656-21.683594 21.679688 0 5.882812-4.773438 10.652344-10.660156 10.652344-5.882813 0-10.65625-4.769532-10.65625-10.652344 0-23.707032 19.289062-42.996094 43-42.996094 23.707031 0 42.992187 19.289062 42.992187 42.996094 0 5.882812-4.777344 10.652344-10.664063 10.652344zm0 0"/><path d="m318.421875 341.242188c-23.703125 0-42.988281-19.285157-42.988281-42.996094 0-5.878906 4.769531-10.652344 10.65625-10.652344 5.878906 0 10.65625 4.773438 10.65625 10.652344 0 11.957031 9.726562 21.679687 21.675781 21.679687 11.960937 0 21.6875-9.71875 21.6875-21.679687 0-5.878906 4.765625-10.652344 10.65625-10.652344 5.886719 0 10.652344 4.773438 10.652344 10.652344 0 23.710937-19.285157 42.996094-42.996094 42.996094zm0 0"/><path d="m295.332031 258.085938c-5.886719 0-10.65625-4.769532-10.65625-10.652344 0-11.953125-9.722656-21.679688-21.6875-21.679688-11.949219 0-21.675781 9.722656-21.675781 21.679688 0 5.882812-4.773438 10.652344-10.652344 10.652344-5.894531 0-10.664062-4.769532-10.664062-10.652344 0-23.707032 19.28125-42.996094 42.992187-42.996094 23.710938 0 42.996094 19.289062 42.996094 42.996094 0 5.882812-4.765625 10.652344-10.652344 10.652344zm0 0"/></svg>