<svg height="512pt" viewBox="0 0 511 512" width="512pt" xmlns="http://www.w3.org/2000/svg"><path d="m471.394531 296.234375c-19.179687-17.214844-43.011719-27.90625-68.257812-30.828125 0-9.761719 0-167.691406 0-175.054688 0-7.910156-3.699219-14.96875-9.453125-19.546874-3.410156-2.980469-9.421875-5.433594-15.527344-5.433594h-68.960938v-23.75c0-22.941406-18.667968-41.621094-41.613281-41.621094h-28.59375c-4.183593 0-7.5625 3.386719-7.5625 7.5625 0 4.1875 3.378907 7.566406 7.5625 7.566406h28.59375c14.601563 0 26.484375 11.890625 26.484375 26.492188v23.75h-12.273437v-23.75c0-7.835938-6.375-14.21875-14.210938-14.21875h-131.523437c-7.835938 0-14.21875 6.382812-14.21875 14.21875v23.75h-12.273438v-23.75c0-14.601563 11.890625-26.492188 26.492188-26.492188h72.675781c4.175781 0 7.5625-3.378906 7.5625-7.566406 0-4.175781-3.386719-7.5625-7.5625-7.5625h-72.675781c-22.941406 0-41.621094 18.679688-41.621094 41.621094v23.75h-68.957031c-13.773438 0-24.980469 11.207031-24.980469 24.980468v50.648438c0 .039062.003906.082031.003906.121094v132.714844c0 4.175781 3.378906 7.5625 7.5625 7.5625 4.175782 0 7.566406-3.386719 7.566406-7.5625v-85.671876c11.445313 16.027344 28.546876 27.734376 48.375 32.1875v22.203126c0 8.910156 7.25 16.160156 16.160157 16.160156h22.726562c8.914063 0 16.164063-7.25 16.164063-16.160156v-20.207032h165.519531v20.207032c0 8.910156 7.25 16.160156 16.164063 16.160156h22.726562c8.910156 0 16.160156-7.25 16.160156-16.160156v-22.199219c19.828125-4.457031 36.933594-16.167969 48.378906-32.195313v76.425782c-28.992187.148437-57.394531 10.449218-80.027343 29.996093-3.15625 2.722657-3.507813 7.503907-.773438 10.667969 2.730469 3.160156 7.503907 3.511719 10.667969.777344 69.339844-59.84375 179.46875-11.851563 179.46875 82.398437 0 60.054688-48.414062 108.445313-108.730469 108.445313-87.660156 0-138.316406-98.367188-89.535156-169.796875 2.359375-3.449219 1.472656-8.15625-1.976563-10.515625-3.449218-2.351563-8.148437-1.472656-10.511718 1.976562-8.53125 12.484375-14.621094 26.21875-18.101563 40.652344h-208.039062c-24.71875 0-44.816407-20.101562-44.816407-44.808594v-10.289062c0-4.171875-3.390624-7.5625-7.566406-7.5625-4.183594 0-7.5625 3.390625-7.5625 7.5625v10.289062c0 33.050782 26.886719 59.9375 59.945313 59.9375h205.367187c-8.199218 74.28125 49.90625 137.683594 122.800782 137.683594 35.238281 0 68.652343-14.828125 92.199218-41.078125 45.929688-51.195313 41.101563-129.371094-9.421875-174.6875zm-334.425781-253.703125h129.695312v22.839844h-129.695312zm-33.039062 200.023438c0 .570312-.464844 1.035156-1.035157 1.035156h-22.726562c-.566407 0-1.03125-.464844-1.03125-1.035156v-20.273438c2.863281.09375-.730469.066406 24.792969.066406zm0-35.335938c-24.667969 0-22.496094.027344-24.792969-.066406v-20.65625c0-.570313.460937-1.035156 1.03125-1.035156h22.726562c.570313 0 1.035157.464843 1.035157 1.035156zm220.574218 35.335938c0 .570312-.464844 1.035156-1.035156 1.035156h-22.726562c-.570313 0-1.035157-.464844-1.035157-1.035156v-20.207032c25.53125 0 21.9375.027344 24.796875-.066406zm0-35.402344c-2.296875.09375-.109375.066406-24.796875.066406v-20.722656c0-.570313.464844-1.035156 1.035157-1.035156h22.726562c.570312 0 1.035156.464843 1.035156 1.035156zm63.507813-66.152344c0 30.332031-20.507813 55.949219-48.378907 63.757812v-18.261718c0-8.914063-7.253906-16.164063-16.164062-16.164063h-22.726562c-8.910157 0-16.160157 7.25-16.160157 16.164063v20.722656h-165.523437v-20.722656c0-8.914063-7.25-16.164063-16.164063-16.164063h-22.726562c-8.910157 0-16.160157 7.25-16.160157 16.164063v18.261718c-27.835937-7.796874-48.324218-33.355468-48.375-63.632812v-50.769531c0-5.4375 4.414063-9.855469 9.851563-9.855469h352.671875c5.417969 0 9.855469 4.417969 9.855469 9.851562zm0 0"/><path d="m388.898438 304.914062c-49.164063 0-88.148438 42.480469-83.066407 91.898438 4.382813 42.628906 39.941407 74.84375 82.792969 74.84375 4.175781 0 7.5625-3.386719 7.5625-7.5625s-3.390625-7.5625-7.566406-7.5625c-37.722656-.003906-68.101563-30.453125-68.101563-68.328125 0-37.582031 30.675781-68.160156 68.382813-68.160156 54.824218 0 83.613281 58.699219 59.53125 101.421875l-1.609375-22.613282c-.296875-4.167968-3.929688-7.3125-8.082031-7.007812-4.167969.292969-7.304688 3.914062-7.007813 8.078125l2.96875 41.753906c.363281 5.097657 5.589844 8.386719 10.34375 6.492188l38.886719-15.484375c3.882812-1.546875 5.777344-5.945313 4.230468-9.828125-1.546874-3.878907-5.945312-5.773438-9.824218-4.226563l-14.351563 5.714844c25.59375-52.75-11.507812-119.429688-75.089843-119.429688zm0 0"/><path d="m381.195312 348.113281v36.902344l-19.050781 17.890625c-5 4.695312-1.621093 13.078125 5.179688 13.078125 3.992187 0 3.5-.476563 26.613281-22.183594 1.523438-1.429687 2.386719-3.425781 2.386719-5.515625v-40.171875c0-4.175781-3.386719-7.5625-7.566407-7.5625-4.175781 0-7.5625 3.386719-7.5625 7.5625zm0 0"/></svg>