<svg height="512" viewBox="0 0 512 512" width="512" xmlns="http://www.w3.org/2000/svg"><g id="Filled_outline" data-name="Filled outline"><circle cx="448" cy="200" fill="#743b20" r="40"/><path d="m432 160h16v16h-16z" fill="#feb784"/><path d="m288 160h16v16h-16z" fill="#feb784"/><path d="m280 120h24v16h-24z" fill="#743b20"/><rect fill="#9fe4ed" height="224" rx="56" width="112" x="160" y="24"/><path d="m24 264h128a32 32 0 0 1 32 32 32 32 0 0 1 -32 32h-128a0 0 0 0 1 0 0v-64a0 0 0 0 1 0 0z" fill="#e0e0de" transform="matrix(-1 0 0 -1 208 592)"/><path d="m24 328h128a32 32 0 0 1 32 32 32 32 0 0 1 -32 32h-128a0 0 0 0 1 0 0v-64a0 0 0 0 1 0 0z" fill="#d6d6d4" transform="matrix(-1 0 0 -1 208 720)"/><path d="m24 392h128a32 32 0 0 1 32 32 32 32 0 0 1 -32 32h-128a0 0 0 0 1 0 0v-64a0 0 0 0 1 0 0z" fill="#e0e0de" transform="matrix(-1 0 0 -1 208 848)"/><path d="m48 288h136v16h-136z" fill="#bfbfbd"/><path d="m48 352h136v16h-136z" fill="#bfbfbd"/><path d="m48 416h136v16h-136z" fill="#bfbfbd"/><path d="m24 456h184v32h-184z" fill="#7a432a"/><path d="m208 456h-83l-32 32h115z" fill="#743b20"/><path d="m440 352h48v144h-48z" fill="#fec093"/><path d="m230.535 341.451-43.27 110.549a25.416 25.416 0 0 0 15.411 33.922 25.416 25.416 0 0 0 31.324-13.922l46-112z" fill="#feb784"/><path d="m440 496v-48c21.687-23.557 20.977-57.276 0-80v-16h48v-29.308a40 40 0 0 0 -34.343-39.6l-21.657-3.092-32-8-32 56-32-56-32 8-31.546 5.258a32 32 0 0 0 -23.628 17.8l-18.291 38.392 49.465 18.55 8-16h8v24c-20.977 22.724-21.687 56.443 0 80v48" fill="#374559"/><path d="m360 328h16v40h-16z" fill="#29384a"/><path d="m212 488a28 28 0 0 1 -28-28v-36h56v36a28 28 0 0 1 -28 28z" fill="#fec9a3"/><path d="m248 424h-64v-128h72v40l-16 24z" fill="#4db7e5"/><g fill="#60d1e0"><path d="m208 248h16v48h-16z"/><path d="m208 192h16v40h-16z"/><path d="m184.411 130.53a42.8 42.8 0 0 0 -26.941-26.941l5.06-15.178a58.874 58.874 0 0 1 37.059 37.059z"/><path d="m208 24h16v40h-16z"/><path d="m247.589 130.53-15.178-5.06a58.874 58.874 0 0 1 37.059-37.059l5.06 15.178a42.8 42.8 0 0 0 -26.941 26.941z"/><path d="m184.411 82.53a42.8 42.8 0 0 0 -26.941-26.941l5.06-15.178a58.874 58.874 0 0 1 37.059 37.059z"/><path d="m247.589 82.53-15.178-5.06a58.874 58.874 0 0 1 37.059-37.059l5.06 15.178a42.8 42.8 0 0 0 -26.941 26.941z"/><path d="m184.411 178.53a42.8 42.8 0 0 0 -26.941-26.941l5.06-15.178a58.874 58.874 0 0 1 37.059 37.059z"/><path d="m208 80h16v40h-16z"/><path d="m247.589 178.53-15.178-5.06a58.874 58.874 0 0 1 37.059-37.059l5.06 15.178a42.8 42.8 0 0 0 -26.941 26.941z"/><path d="m184.411 226.53a42.8 42.8 0 0 0 -26.941-26.941l5.06-15.178a58.874 58.874 0 0 1 37.059 37.059z"/><path d="m208 136h16v40h-16z"/><path d="m247.589 226.53-15.178-5.06a58.874 58.874 0 0 1 37.059-37.059l5.06 15.178a42.8 42.8 0 0 0 -26.941 26.941z"/></g><path d="m408 344-40-16-40 16-24-64 32-8v-56h64v56l32 8z" fill="#fec9a3"/><path d="m336 272-32 8 24 64 40-16z" fill="#4c5d72"/><path d="m400 272-32 56 40 16 24-64z" fill="#4c5d72"/><path d="m440 448v48h-144v-48c-21.69-23.56-20.98-57.28 0-80h144a60.121 60.121 0 0 1 13.53 23.44c5.77 19.04 1.5 40.24-13.53 56.56z" fill="#e0e0de"/><path d="m440 448v48h-144v-3.01c55.65-19.51 114.4-50.95 157.53-101.55 5.77 19.04 1.5 40.24-13.53 56.56z" fill="#d6d6d4"/><path d="m400 248.427v-32.427h-64v32.427a71.4 71.4 0 0 0 64 0z" fill="#feb784"/><path d="m288 128h8a0 0 0 0 1 0 0v48a0 0 0 0 1 0 0h-8a24 24 0 0 1 -24-24 24 24 0 0 1 24-24z" fill="#feb784"/><path d="m440 112v56a72.006 72.006 0 0 1 -72 72 74.533 74.533 0 0 1 -7.66-.4 72.024 72.024 0 0 1 -64.34-71.6v-56a64 64 0 0 1 64-64h16a64 64 0 0 1 64 64z" fill="#fec9a3"/><path d="m440 112v56a72.006 72.006 0 0 1 -72 72 74.533 74.533 0 0 1 -7.66-.4 87.962 87.962 0 0 0 44.66-76.6v-48a87.688 87.688 0 0 0 -25.78-62.22c-1.66-1.66-3.39-3.26-5.18-4.78h1.96a64 64 0 0 1 64 64z" fill="#fec093"/><path d="m332 128a12 12 0 1 0 12 12 12.013 12.013 0 0 0 -12-12z" fill="#7a432a"/><path d="m404 128a12 12 0 1 0 12 12 12.013 12.013 0 0 0 -12-12z" fill="#7a432a"/><path d="m456 104v32l-16-8-24-40s-8.17 3.71-20.88 8.87c-29.02 11.79-81.74 31.13-115.12 31.13v-24a79.945 79.945 0 0 1 80-80h16a80 80 0 0 1 80 80z" fill="#7a432a"/><path d="m368 200a24.027 24.027 0 0 1 -24-24h16a8 8 0 0 0 16 0h16a24.027 24.027 0 0 1 -24 24z" fill="#f7a468"/><path d="m456 104v32l-16-8-24-40s-8.17 3.71-20.88 8.87a88.114 88.114 0 0 0 -64.67-67.23 79.687 79.687 0 0 1 29.55-5.64h16a80 80 0 0 1 80 80z" fill="#743b20"/><path d="m440 128h8a24 24 0 0 1 24 24 24 24 0 0 1 -24 24h-8a0 0 0 0 1 0 0v-48a0 0 0 0 1 0 0z" fill="#feb784"/><path d="m454.79 275.17-46.79-9.416v-28.465q2.957-1.712 5.753-3.672a47.982 47.982 0 1 0 64.4-70.923 31.96 31.96 0 0 0 -14.153-38.389v-20.305a88.1 88.1 0 0 0 -88-88h-16a88.117 88.117 0 0 0 -87.71 80.87l-2.82-8.459a58.874 58.874 0 0 0 -37.059 37.059l15.178 5.06a42.822 42.822 0 0 1 24.411-26v19.775a32.151 32.151 0 0 0 -14.357 17.595 58.266 58.266 0 0 0 -25.232 31.569l15.178 5.064a42.472 42.472 0 0 1 10.058-16.419 32.051 32.051 0 0 0 30.353 21.886h1.6a79.4 79.4 0 0 0 38.4 53.286v28.468l-56.865 11.615a40.006 40.006 0 0 0 -21.146 10.631h-25.989v-40h-16v40h-16v-24a8 8 0 0 0 -8-8h-128a39.986 39.986 0 0 0 -23.972 72 39.958 39.958 0 0 0 0 64 39.94 39.94 0 0 0 -8.006 56h-.022a8 8 0 0 0 -8 8v32a8 8 0 0 0 8 8h188a36.04 36.04 0 0 0 36-36v-3l24.694-58.888c-2.838 18.314 2.254 37.433 15.306 52.909v44.979h16v-48a8 8 0 0 0 -2.114-5.418c-17.7-19.226-18.434-46.72-2.226-66.582h136.68c16.208 19.862 15.473 47.356-2.226 66.582a8 8 0 0 0 -2.114 5.418v48h16v-44.98c21.442-25.423 21.443-60.687 0-86.046v-4.974h32v136h16v-173.31a48.246 48.246 0 0 0 -41.21-47.52zm-422.79 20.83a24.028 24.028 0 0 1 24-24h120v16h-128v16h128v16h-120a24.028 24.028 0 0 1 -24-24zm0 64a24.028 24.028 0 0 1 24-24h120v16h-128v16h128v16h-120a24.028 24.028 0 0 1 -24-24zm24 40h120v16h-128v16h128v16h-120a24 24 0 0 1 0-48zm-24 80v-16h144.046a33.343 33.343 0 0 0 4.9 16zm344-140.184 29.029 11.612a8 8 0 0 0 10.462-4.619l11.709-31.229 4.04 44.42h-55.24zm-8-27.941-24-42v-25.537a80.487 80.487 0 0 0 48 0v25.537zm53.361-26.288-17.981 47.949-23.873-9.549 24.432-42.756zm47.783-109.6a31.989 31.989 0 1 1 -43.209 47.164 79.866 79.866 0 0 0 20.446-39.151h1.619a31.862 31.862 0 0 0 21.144-8.01zm-5.144-23.987a16.019 16.019 0 0 1 -16 16v-32a16.019 16.019 0 0 1 16 16zm-176 16a16 16 0 0 1 0-32zm0-48.359v-15.641a72.081 72.081 0 0 1 72-72h16a72.081 72.081 0 0 1 72 72v16h-3.47l-21.67-36.116a8 8 0 0 0 -10.171-3.167c-.7.317-70.245 31.756-117.766 38.156-2.404.327-4.716.583-6.923.768zm16 48.359v-34.347c40.577-6.978 90.937-27.761 108.772-35.484l19.228 32.047v37.784a64.132 64.132 0 0 1 -35.566 57.349 64 64 0 0 1 -92.434-57.349zm28.061 113.231 24.432 42.756-23.873 9.549-17.981-47.949zm-11.552 65.578a8 8 0 0 0 10.462 4.619l29.029-11.612v20.184h-55.24l4.039-44.42zm-88.509 113.191a20.131 20.131 0 0 1 -7.072 15.249c-5.49 4.661-14.18 6.136-21.016 3.849a17.5 17.5 0 0 1 -8.767-6.563 17.842 17.842 0 0 1 -1.788-16.671c.02-.047.039-.093.058-.14l9.425-23.724h29.16zm16-126.422-14.656 21.984a8 8 0 0 0 -1.282 5.43l6.876 55.008h-46.938v-112h56zm5.4 69.159-5.1-40.776 2.827-4.241 18.273 6.852zm37.476-66.737h-2.876a8 8 0 0 0 -7.155 4.422l-4.78 9.558-15.816-5.931 2.407-3.611a7.993 7.993 0 0 0 1.344-4.438v-38.864a24.008 24.008 0 0 1 9.766-3.985l21.334-3.551zm189.124 8h-34.149l-4.968-54.652 11.643 1.661a32.165 32.165 0 0 1 27.474 31.681z"/><circle cx="332" cy="140" r="12"/><circle cx="404" cy="140" r="12"/><path d="m368 200a24.027 24.027 0 0 0 24-24h-16a8 8 0 0 1 -16 0h-16a24.027 24.027 0 0 0 24 24z"/><path d="m208 192h16v40h-16z"/><path d="m184.411 130.53 15.178-5.06a58.874 58.874 0 0 0 -37.059-37.059l-5.06 15.178a42.8 42.8 0 0 1 26.941 26.941z"/><path d="m208 24h16v40h-16z"/><path d="m184.411 82.53 15.178-5.06a58.874 58.874 0 0 0 -37.059-37.059l-5.06 15.178a42.8 42.8 0 0 1 26.941 26.941z"/><path d="m274.53 55.589-5.06-15.178a58.874 58.874 0 0 0 -37.059 37.059l15.178 5.06a42.8 42.8 0 0 1 26.941-26.941z"/><path d="m184.411 178.53 15.178-5.06a58.874 58.874 0 0 0 -37.059-37.059l-5.06 15.178a42.8 42.8 0 0 1 26.941 26.941z"/><path d="m208 80h16v40h-16z"/><path d="m184.411 226.53 15.178-5.06a58.874 58.874 0 0 0 -37.059-37.059l-5.06 15.178a42.8 42.8 0 0 1 26.941 26.941z"/><path d="m208 136h16v40h-16z"/><path d="m274.53 199.589-5.06-15.178a58.874 58.874 0 0 0 -37.059 37.059l15.178 5.06a42.8 42.8 0 0 1 26.941-26.941z"/></g></svg>