<?xml version="1.0" encoding="iso-8859-1"?>
<!-- Generator: Adobe Illustrator 19.0.0, SVG Export Plug-In . SVG Version: 6.00 Build 0)  -->
<svg version="1.1" id="Layer_1" xmlns="http://www.w3.org/2000/svg" xmlns:xlink="http://www.w3.org/1999/xlink" x="0px" y="0px"
	 viewBox="0 0 512 512" style="enable-background:new 0 0 512 512;" xml:space="preserve">
<path style="fill:#FFB118;" d="M328.237,268.436c0,0,67.784-31.877,67.784-99.746c0-65.292-57.387-119.96-139.871-119.96h-0.184
	c-82.483,0-139.871,54.668-139.871,119.96c0,67.87,67.784,99.746,67.784,99.746H328.237z"/>
<path style="fill:#0F8EE3;" d="M213.858,319.014v20.352c0,6.799-4.088,12.932-10.365,15.548l-67.237,28.016
	c-14.205,5.919-23.458,22.006-23.458,37.395v81.087h286.337v-81.087c0-15.388-9.253-31.477-23.457-37.395l-67.237-28.016
	c-6.277-2.615-10.365-8.749-10.365-15.548v-20.352H213.858z"/>
<path style="fill:#102F50;" d="M353.065,501.412v-96.015c0-10.48,3.554-20.167,9.506-27.929l-54.131-22.554
	c-6.277-2.615-10.365-8.749-10.365-15.548l-0.094,17.12c0,23.08-18.884,41.964-41.964,41.964l0,0
	c-23.08,0-41.964-18.884-41.964-41.964l-0.195-17.12c0,6.799-4.088,12.932-10.365,15.548l-54.131,22.555
	c5.952,7.763,9.506,17.449,9.506,27.929v96.015h194.197V501.412z"/>
<g>
	<path style="fill:#FEBBA0;" d="M162.307,168.624h-0.367v30.442c-12.924,0-23.402,10.478-23.402,23.402
		c0,12.924,10.478,23.402,23.402,23.402v17.471c1.126,14.734,8.311,27.852,19.191,35.036l56.572,32.341
		c11.359,7.502,25.172,7.502,36.531,0l56.402-32.341c10.879-7.185,18.232-20.302,19.359-35.036v-17.472
		c12.924,0,23.402-10.478,23.402-23.402c0-12.924-10.478-23.402-23.402-23.402v-30.442"/>
	<path style="fill:#FEBBA0;" d="M298.075,319.014v37.473c0,23.08-18.978,41.964-42.058,41.964l0,0
		c-23.08,0-42.159-18.884-42.159-41.964v-37.473"/>
</g>
<rect x="189.421" y="456.488" style="fill:#FFFFFF;" width="133.465" height="44.924"/>
<path style="fill:#FFA036;" d="M501.531,256.019v74.123c0,25.988-21.076,47.053-47.063,47.053
	c-25.988,0-47.063-21.065-47.063-47.053v-74.123H501.531z"/>
<g>
	<circle style="fill:#95D9FF;" cx="464.699" cy="175.025" r="30.308"/>
	<circle style="fill:#95D9FF;" cx="43.878" cy="159.438" r="33.431"/>
	<circle style="fill:#95D9FF;" cx="96.273" cy="35.485" r="19.825"/>
	<circle style="fill:#95D9FF;" cx="481.729" cy="72.317" r="19.825"/>
	<circle style="fill:#95D9FF;" cx="410.592" cy="34.654" r="24.071"/>
</g>
<path style="fill:#FFAF18;" d="M47.159,306.339H10.504v140.718c0,5.209,4.223,9.432,9.432,9.432h60.618V339.734
	C80.553,321.29,65.602,306.339,47.159,306.339z"/>
<path style="fill:#95D9FF;" d="M11.059,252.679v18.96h91.351v-36.233H28.331C18.792,235.406,11.059,243.139,11.059,252.679z"/>
<rect x="10.5" y="272.217" style="fill:#ECEBED;" width="37.652" height="34.124"/>
<path style="fill:#FFFFFF;" d="M256.15,78.912c38.196,0,74.582,7.748,107.673,21.757c4.428-7.099,6.993-15.479,6.993-24.462
	c0-25.57-20.729-46.299-46.299-46.299c-8.506,0-16.471,2.305-23.321,6.308c-9.217-15.352-26.021-25.63-45.231-25.63
	c-19.145,0-35.903,10.205-45.14,25.471c-6.788-3.905-14.651-6.149-23.045-6.149c-25.57,0-46.299,20.729-46.299,46.299
	c0,8.983,2.566,17.363,6.993,24.462C181.568,86.659,217.954,78.912,256.15,78.912z"/>
<path d="M10.584,511.859h-0.137C4.677,511.859,0,507.182,0,501.412c0-5.77,4.677-10.447,10.447-10.447h0.137
	c5.77,0,10.447,4.677,10.447,10.447C21.032,507.182,16.354,511.859,10.584,511.859z"/>
<path d="M501.479,511.859h-0.137c-5.77,0-10.447-4.677-10.447-10.447c0-5.77,4.677-10.447,10.447-10.447h0.137
	c5.77,0,10.447,4.677,10.447,10.447C511.927,507.182,507.25,511.859,501.479,511.859z"/>
<path d="M256.01,292.348c-11.39,0-20.657-9.267-20.657-20.657c0-5.77,4.677-10.447,10.447-10.447h20.418
	c5.77,0,10.447,4.677,10.447,10.447C276.666,283.081,267.4,292.348,256.01,292.348z"/>
<path d="M464.695,215.781c-22.471,0-40.752-18.282-40.752-40.753s18.282-40.752,40.752-40.752c22.47,0,40.753,18.282,40.753,40.752
	S487.167,215.781,464.695,215.781z M464.695,155.169c-10.949,0-19.857,8.908-19.857,19.857c0,10.95,8.908,19.858,19.857,19.858
	c10.95,0,19.858-8.908,19.858-19.858C484.554,164.078,475.645,155.169,464.695,155.169z"/>
<path d="M43.878,203.311C19.683,203.311,0,183.628,0,159.434s19.683-43.878,43.878-43.878s43.878,19.684,43.878,43.878
	S68.072,203.311,43.878,203.311z M43.878,136.451c-12.673,0-22.983,10.311-22.983,22.983c0,12.673,10.311,22.983,22.983,22.983
	s22.983-10.311,22.983-22.983C66.86,146.761,56.55,136.451,43.878,136.451z"/>
<path d="M96.272,65.756c-16.692,0-30.272-13.581-30.272-30.272S79.58,5.213,96.272,5.213s30.272,13.581,30.272,30.272
	S112.963,65.756,96.272,65.756z M96.272,26.107c-5.17,0-9.378,4.206-9.378,9.378s4.206,9.378,9.378,9.378s9.378-4.206,9.378-9.378
	S101.442,26.107,96.272,26.107z"/>
<path d="M481.728,102.588c-16.692,0-30.272-13.581-30.272-30.272s13.581-30.272,30.272-30.272S512,55.623,512,72.315
	S498.419,102.588,481.728,102.588z M481.728,62.939c-5.17,0-9.378,4.206-9.378,9.378c0,5.171,4.206,9.378,9.378,9.378
	c5.171,0,9.378-4.206,9.378-9.378C491.105,67.145,486.898,62.939,481.728,62.939z"/>
<path d="M410.597,69.177c-19.034,0-34.519-15.485-34.519-34.518s15.485-34.518,34.519-34.518c19.033,0,34.518,15.485,34.518,34.518
	S429.63,69.177,410.597,69.177z M410.597,21.035c-7.512,0-13.624,6.112-13.624,13.623s6.112,13.623,13.624,13.623
	c7.513,0,13.623-6.112,13.623-13.623S418.109,21.035,410.597,21.035z"/>
<path d="M39.129,359.814c-5.77,0-10.447-4.677-10.447-10.447v-0.137c0-5.77,4.677-10.447,10.447-10.447s10.447,4.677,10.447,10.447
	v0.137C49.576,355.136,44.899,359.814,39.129,359.814z"/>
<path d="M39.129,436.626c-5.77,0-10.447-4.677-10.447-10.447v-43.014c0-5.77,4.677-10.447,10.447-10.447s10.447,4.677,10.447,10.447
	v43.014C49.576,431.949,44.899,436.626,39.129,436.626z"/>
<path d="M294.068,235.375c6.44,0,11.678-5.238,11.678-11.677c0-6.44-5.238-11.678-11.678-11.678c-6.44,0-11.678,5.238-11.678,11.678
	C282.39,230.136,287.628,235.375,294.068,235.375z"/>
<path d="M217.865,212.02c-6.44,0-11.678,5.238-11.678,11.678c0,6.439,5.238,11.677,11.678,11.677c6.44,0,11.678-5.238,11.678-11.677
	C229.544,217.259,224.305,212.02,217.865,212.02z"/>
<path d="M102.408,224.959H28.332c-15.286,0-28.275,12.436-28.275,27.72v194.378c0,10.961,8.918,19.879,19.879,19.879h60.618
	c5.77,0,10.447-4.677,10.447-10.447V339.734c0-20.217-13.758-37.272-32.4-42.318v-15.331h43.808c5.77,0,10.447-4.677,10.447-10.447
	v-36.233C112.856,229.636,108.178,224.959,102.408,224.959z M37.707,295.891H20.951v-13.229h16.756
	C37.707,282.662,37.707,295.891,37.707,295.891z M70.106,339.734v106.307H20.951V316.786h26.208
	C59.812,316.786,70.106,327.081,70.106,339.734z M91.961,261.191H21.506v-8.511c0-3.764,3.062-6.825,6.826-6.825h63.63v15.337
	H91.961z"/>
<path d="M501.531,245.571h-94.128c-5.77,0-10.447,4.677-10.447,10.447v74.122c0,28.138,20.325,51.604,47.063,56.532v4.345h-0.747
	c-5.77,0-10.447,4.677-10.447,10.447c0,5.77,4.677,10.447,10.447,10.447h0.747v79.052h-34.438v-70.64
	c0-20.364-12.29-39.707-29.887-47.039l-67.237-28.015c-2.39-0.996-3.936-3.313-3.936-5.904v-16.269l27.308-15.659
	c0.19-0.109,0.377-0.225,0.561-0.346c13.674-9.03,22.653-25.089,24.019-42.959c0.021-0.264,0.03-0.531,0.03-0.796v-8.673
	c6.116-1.989,11.46-5.687,15.5-10.512c0.802-0.524,1.551-1.157,2.208-1.919c3.174-3.69,6.127-7.53,8.78-11.415
	c12.966-18.986,19.541-39.89,19.541-62.133c0-27.687-9.718-54.643-27.48-76.577c1.5-5.137,2.275-10.488,2.275-15.905
	c0-31.29-25.456-56.745-56.745-56.745c-6.813,0-13.551,1.23-19.883,3.599C292.731,8.736,274.823,0.141,255.966,0.141
	c-19.118,0-36.703,8.38-48.615,22.806c-6.243-2.294-12.874-3.484-19.57-3.484c-31.29,0-56.745,25.456-56.745,56.745
	c0,5.36,0.757,10.654,2.225,15.74c-17.847,21.966-27.613,48.982-27.613,76.741c0,21.707,6.269,42.159,18.634,60.787
	c2.007,3.025,4.201,6.032,6.52,8.94c0.785,0.983,1.71,1.784,2.726,2.404c4.188,6.462,10.506,11.422,17.964,13.848v8.673
	c0,0.265,0.01,0.532,0.03,0.796c1.372,17.942,10.288,34.001,23.85,42.959c0.187,0.123,0.378,0.24,0.573,0.352l27.465,15.701v16.218
	c0,2.59-1.545,4.907-3.936,5.904l-67.238,28.016c-17.597,7.333-29.886,26.675-29.886,47.038v70.64H44.383
	c-5.77,0-10.447,4.677-10.447,10.447c0,5.77,4.677,10.447,10.447,10.447h423.161c5.77,0,10.447-4.677,10.447-10.447
	c0-5.77-4.677-10.447-10.447-10.447h-2.63v-79.052h0.747c5.77,0,10.447-4.677,10.447-10.447c0-5.77-4.677-10.447-10.447-10.447
	h-0.747v-4.345c26.739-4.929,47.063-28.394,47.063-56.532v-74.122C511.978,250.249,507.301,245.571,501.531,245.571z
	 M187.781,40.357c6.257,0,12.425,1.645,17.836,4.758c4.924,2.832,11.208,1.213,14.148-3.647
	c7.74-12.794,21.274-20.431,36.201-20.431c14.986,0,28.545,7.685,36.273,20.558c2.945,4.907,9.29,6.531,14.229,3.643
	c5.463-3.193,11.704-4.88,18.05-4.88c19.767,0,35.85,16.083,35.85,35.85c0,3.794-0.599,7.536-1.758,11.098
	C325.949,74.799,291.53,68.464,256.15,68.464s-69.799,6.334-102.461,18.842c-1.16-3.563-1.758-7.304-1.758-11.098
	C151.931,56.439,168.014,40.357,187.781,40.357z M133.862,203.625c-4.86-11.082-7.319-22.777-7.319-34.936
	c0-21.021,6.463-40.871,18.754-58.072c2.311,0.738,4.877,0.676,7.253-0.328c32.807-13.889,67.664-20.93,103.6-20.93
	s70.793,7.042,103.6,20.93c1.324,0.56,2.705,0.827,4.069,0.827c1.031,0,2.047-0.17,3.023-0.467
	c12.276,17.193,18.731,37.034,18.731,58.038c0,12.222-2.483,23.97-7.392,35.099c-4.188-6.3-10.411-11.136-17.741-13.521V176.98
	c0-5.77-4.677-10.447-10.447-10.447h-73.327v-21.812c0-4.65-3.073-8.74-7.539-10.034c-4.465-1.295-9.25,0.519-11.737,4.446
	l-17.343,27.4h-78.109c-5.77,0-10.447,4.677-10.447,10.447v13.286C144.226,192.631,138.051,197.406,133.862,203.625z
	 M186.631,289.487c-7.984-5.405-13.283-15.291-14.244-26.568v-17.05c0-5.77-4.677-10.447-10.447-10.447
	c-7.143,0-12.954-5.812-12.954-12.954s5.812-12.954,12.954-12.954c5.77,0,10.447-4.677,10.447-10.447v-11.636h73.414
	c3.581,0,6.913-1.834,8.828-4.86l1.598-2.526c1.309,4.276,5.287,7.386,9.992,7.386h73.327v11.636c0,5.77,4.677,10.447,10.447,10.447
	c7.143,0,12.954,5.812,12.954,12.954s-5.812,12.954-12.954,12.954c-5.77,0-10.447,4.677-10.447,10.447v17.049
	c-0.949,11.047-6.442,21.172-14.417,26.573l-56.092,32.163c-0.191,0.11-0.377,0.225-0.561,0.346c-7.83,5.172-17.183,5.174-25.016,0
	c-0.187-0.123-0.377-0.24-0.573-0.352L186.631,289.487z M287.628,335.079v21.408c0,17.378-14.18,31.517-31.611,31.517
	c-17.486,0-31.712-14.138-31.712-31.517v-21.394l7.938,4.538c7.333,4.763,15.528,7.144,23.724,7.144
	c8.198,0,16.395-2.383,23.729-7.148L287.628,335.079z M148.421,490.965h-25.175v-70.64c0-11.775,7.32-23.706,17.028-27.751
	l4.87-2.029c2.153,4.627,3.276,9.655,3.276,14.854v85.566H148.421z M312.433,490.965H199.867v-24.029h112.566L312.433,490.965
	L312.433,490.965z M342.618,405.399v85.567h-9.29v-34.476c0-5.77-4.677-10.447-10.447-10.447H189.419
	c-5.77,0-10.447,4.677-10.447,10.447v34.476h-9.657v-85.567c0-8.003-1.666-15.745-4.868-22.896l39.831-16.596
	c4.468,24.418,25.961,42.992,51.74,42.992c25.73,0,47.179-18.574,51.639-42.992l39.83,16.595
	C344.284,389.653,342.618,397.396,342.618,405.399z M388.687,490.965h-25.175v-85.567c0-5.199,1.123-10.226,3.277-14.854
	l4.871,2.029c9.708,4.045,17.028,15.975,17.028,27.751v70.641H388.687z M491.083,330.141c0,16.556-11.054,30.572-26.169,35.079
	v-1.615c0-5.77-4.677-10.447-10.447-10.447c-5.77,0-10.447,4.677-10.447,10.447v1.615c-15.115-4.507-26.169-18.523-26.169-35.079
	v-63.675h6.37v42.018c0,5.77,4.677,10.447,10.447,10.447c5.77,0,10.447-4.677,10.447-10.447v-42.018h6.616v22.864
	c0,5.77,4.677,10.447,10.447,10.447c5.77,0,10.447-4.677,10.447-10.447v-22.864h18.457v63.675H491.083z"/>
<g>
</g>
<g>
</g>
<g>
</g>
<g>
</g>
<g>
</g>
<g>
</g>
<g>
</g>
<g>
</g>
<g>
</g>
<g>
</g>
<g>
</g>
<g>
</g>
<g>
</g>
<g>
</g>
<g>
</g>
</svg>
