<svg height="512pt" viewBox="0 -1 512 512" width="512pt" xmlns="http://www.w3.org/2000/svg"><path d="m48 48h160v16h-160zm0 0"/><path d="m240 80h152v16h-152zm0 0"/><path d="m224 320h-16v-16h16zm-32 0h-144v-16h144zm0 0"/><path d="m0 0v509.878906l35.617188-20.632812 27.628906 16 27.570312-16 27.566406 16 27.5625-16 27.542969 16 27.558594-16 27.5625 16 27.558594-16 27.535156 16 27.554687-16 27.535157 16 27.542969-16 27.511718 16 27.550782-16 27.503906 16 27.5625-16 35.535156 20.648437v-509.894531zm496 482.105469-19.535156-11.351563-27.5625 16-27.503906-16-27.550782 16-27.511718-16-27.542969 16-27.535157-16-27.554687 16-27.535156-16-27.558594 16-27.5625-16-27.558594 16-27.542969-16-27.5625 16-27.566406-16-27.585937 16-27.613281-16-19.617188 11.367188v-466.121094h480zm0 0"/><path d="m224 80h-176v208h176zm-96 192h-64v-3.929688c-.003906-3.570312 2.363281-6.710937 5.800781-7.695312l43.320313-12.375h14.878906zm-28-128c6.265625-9.96875 17.21875-16.011719 28.992188-16h23.007812c4.417969 0 8 3.582031 8 8v59.785156l-16 12.214844h-15.921875l-16-12.214844v-35.785156h32v-16zm28 80h16v8.199219l-16-.101563zm80 48h-64v-24h14.878906l43.3125 12.375c3.4375.980469 5.808594 4.121094 5.808594 7.695312zm0-26.480469c-.472656-.167969-.921875-.390625-1.40625-.527343l-44.402344-12.679688h-2.191406v-16.402344l16-12.191406v-67.71875c0-13.253906-10.746094-24-24-24h-23.015625c-23.0625-.023438-43.171875 15.675781-48.746094 38.054688l-2.484375 9.945312h18.246094v43.703125l16 12.191406v16.105469l-46.601562 12.992188c-.488282.136718-.925782.359374-1.398438.527343v-149.519531h144zm0 0"/><path d="m464 336h-416v96h416zm-16 80h-384v-64h384zm0 0"/><path d="m464 112h-224v64h224zm-16 48h-192v-32h192zm0 0"/><path d="m464 192h-224v96h224zm-16 80h-192v-64h192zm0 0"/></svg>