<svg id="Capa_1" enable-background="new 0 0 512 512" height="512" viewBox="0 0 512 512" width="512" xmlns="http://www.w3.org/2000/svg"><g><g><path d="m353.581 504.555h-264.194c-27.614 0-50-22.386-50-50v-397.11c0-27.614 22.386-50 50-50h264.194c27.614 0 50 22.386 50 50v397.109c0 27.615-22.385 50.001-50 50.001z" fill="#ecf4ff"/></g><g><path d="m373.302 11.363c2.522 5.948 3.918 12.49 3.918 19.358v420.323c0 14.994-12.155 27.149-27.15 27.149h-287.408c-6.868 0-13.409-1.396-19.357-3.917 7.544 17.795 25.173 30.279 45.719 30.279h264.921c27.413 0 49.636-22.223 49.636-49.636v-397.837c0-20.546-12.483-38.175-30.279-45.719z" fill="#ddeafb"/></g><g><path d="m272.007 105.943h116.346v236.487h-116.346z" fill="#e28086" transform="matrix(.707 .707 -.707 .707 255.231 -167.81)"/></g><g><path d="m242.347 239.43h236.487v30.333h-236.487z" fill="#dd636e" transform="matrix(.707 -.707 .707 .707 -74.412 329.545)"/></g><g><path d="m430.714 205.921-82.269-82.269 35.981-35.981c7.81-7.81 20.474-7.81 28.284 0l53.985 53.985c7.81 7.81 7.81 20.474 0 28.284z" fill="#fbac90"/></g><g><path d="m466.695 141.655-21.346-21.346c7.754 7.754 7.754 20.325 0 28.079l-36.084 36.084 21.448 21.449 35.981-35.981c7.811-7.811 7.811-20.474.001-28.285z" fill="#f48156"/></g><g><path d="m289.461 347.173c-.775-5.231-2.987-10.279-6.683-14.439-4.955-5.577-11.553-8.69-18.342-9.339-2.181-.209-3.889-1.893-4.096-4.075-.595-6.276-3.295-12.39-8.1-17.195-4.806-4.806-10.92-7.506-17.195-8.101-2.181-.207-3.866-1.915-4.075-4.096-.649-6.789-3.762-13.386-9.339-18.342-4.16-3.696-9.208-5.908-14.439-6.683l-2.744 2.744c-2.878 2.878-5.038 6.391-6.308 10.258l-32.732 99.705c-2.299 7.002 4.342 13.643 11.345 11.345l99.705-32.732c3.866-1.269 7.38-3.43 10.258-6.308z" fill="#fff0af"/></g><g><path d="m282.778 332.734c-3.731-4.2-8.395-7.001-13.369-8.406l-3.154 3.154-.986.986c-2.878 2.878-6.391 5.038-10.258 6.308l-84.663 27.794-4.938 15.042c-2.299 7.002 4.342 13.643 11.345 11.345l99.705-32.732c3.866-1.269 7.38-3.43 10.258-6.308l2.744-2.744c-.776-5.231-2.988-10.279-6.684-14.439z" fill="#ffe07d"/></g><g><path d="m326.039 150.822h116.346v38.663h-116.346z" fill="#fff0af" transform="matrix(.707 .707 -.707 .707 232.85 -221.842)"/></g><g><path d="m180.83 330.639-15.421 46.973c-2.299 7.002 4.342 13.643 11.344 11.345l46.973-15.421z" fill="#057096"/></g><g><path d="m395.29 185.398h38.663v30.333h-38.663z" fill="#ffe07d" transform="matrix(.707 -.707 .707 .707 -20.38 351.926)"/></g><g><path d="m202.279 352.087-31.931 10.482-4.938 15.042c-2.299 7.002 4.342 13.643 11.345 11.345l46.973-15.421z" fill="#055e7f"/></g><g><path d="m397.806 479.335c-3.254-2.512-7.93-1.914-10.444 1.342-8.063 10.443-20.243 16.431-33.417 16.431h-264.921c-23.264 0-42.191-18.927-42.191-42.191v-334.139c0-4.112-3.333-7.445-7.445-7.445s-7.445 3.333-7.445 7.445v334.141c0 31.475 25.606 57.082 57.082 57.082h264.921c17.824 0 34.3-8.099 45.204-22.221 2.512-3.256 1.911-7.932-1.344-10.445z"/><path d="m218.49 81.283c-.025-.068-.051-.135-.079-.202-1.418-3.451-4.745-5.68-8.476-5.68-.002 0-.005 0-.007 0-3.733.002-7.061 2.237-8.475 5.693-.023.057-.047.114-.068.171l-28.486 74.795c-1.464 3.843.465 8.144 4.308 9.608 3.742 1.455 8.147-.427 9.607-4.308l5.268-13.832h35.492l5.212 13.811c1.451 3.847 5.75 5.791 9.595 4.337 3.847-1.452 5.789-5.748 4.336-9.595zm-20.736 51.353 12.155-31.917 12.045 31.917z"/><path d="m160.975 74.189h-41.896c-4.112 0-7.445 3.333-7.445 7.445s3.333 7.445 7.445 7.445h13.417v68.418c0 4.112 3.333 7.445 7.445 7.445s7.445-3.333 7.445-7.445v-68.417h13.588c4.112 0 7.445-3.333 7.445-7.445.002-4.112-3.331-7.446-7.444-7.446z"/><path d="m76.605 432.023h53.672c4.112 0 7.445-3.333 7.445-7.445s-3.333-7.445-7.445-7.445h-53.672c-4.112 0-7.445 3.333-7.445 7.445s3.332 7.445 7.445 7.445z"/><path d="m76.605 466.927h126.122c4.112 0 7.445-3.333 7.445-7.445s-3.333-7.445-7.445-7.445h-126.122c-4.112 0-7.445 3.333-7.445 7.445-.001 4.111 3.332 7.445 7.445 7.445z"/><path d="m278.256 432.023c4.112 0 7.445-3.333 7.445-7.445s-3.333-7.445-7.445-7.445h-112.24c-4.112 0-7.445 3.333-7.445 7.445s3.333 7.445 7.445 7.445z"/><path d="m480.058 155.797c0-7.292-2.84-14.148-7.995-19.304l-54.19-54.19c-2.041-2.041-4.351-3.712-6.846-4.995v-20.226c0-31.475-25.607-57.082-57.082-57.082h-264.921c-31.476 0-57.082 25.607-57.082 57.082v27.114c0 4.112 3.333 7.445 7.445 7.445s7.445-3.334 7.445-7.445v-27.114c0-23.264 18.927-42.191 42.191-42.191h264.921c23.264 0 42.191 18.927 42.191 42.191v17.337c-6.374.559-12.294 3.306-16.872 7.885l-5.455 5.455v-23.494c0-15.85-12.895-28.744-28.745-28.744h-247.159c-15.85 0-28.745 12.894-28.745 28.744v110.686c0 15.85 12.895 28.744 28.745 28.744h159.967l-57.702 57.702c-4.126 3.896-7.348 8.773-9.103 14.187l-9.682 29.494h-23.559v-56.213h26.528c4.112 0 7.445-3.333 7.445-7.445s-3.333-7.445-7.445-7.445h-86.45c-15.85 0-28.745 12.894-28.745 28.744v99.672c0 15.849 12.895 28.744 28.745 28.744h63.589c4.315 5.065 11.367 6.981 17.583 4.897l14.962-4.912c.1.004.198.015.298.015h150.728c15.85 0 28.745-12.894 28.745-28.744v-89.035l22.327-22.327v199.918c0 4.112 3.333 7.445 7.445 7.445s7.445-3.333 7.445-7.445v-213.437c0-.43-.044-.848-.114-1.258l61.151-61.151c5.157-5.156 7.996-12.011 7.996-19.304zm-68.382 58.631-71.739-71.739 16.81-16.81 71.739 71.739zm-119.171 119.172c-1.184-2.066-2.567-4.018-4.16-5.811-3.518-3.961-7.808-7.034-12.558-9.078l109.557-109.557 15.804 15.804zm36.902-180.381 15.748 15.748-109.534 109.534c-2.043-4.719-5.105-8.98-9.044-12.479-1.793-1.593-3.745-2.976-5.811-4.161zm-64.249 155.061c-1.774-4.239-4.365-8.13-7.652-11.419-3.309-3.309-7.23-5.911-11.5-7.686l109.679-109.678 19.128 19.128zm-59.943-28.05c.877-2.671 2.373-5.139 4.335-7.151 2.649.863 5.073 2.242 7.136 4.075 3.934 3.496 6.375 8.285 6.873 13.484.546 5.717 5.081 10.259 10.783 10.8 4.828.457 9.196 2.516 12.633 5.953s5.496 7.805 5.953 12.632c.54 5.702 5.082 10.238 10.799 10.784 5.2.498 9.989 2.938 13.484 6.873 1.833 2.064 3.213 4.489 4.076 7.137-2.012 1.961-4.48 3.458-7.15 4.335l-48.383 15.883-36.423-36.423zm73.567 83.069c2.215-.727 4.345-1.703 6.361-2.875v15.819h-45.791zm-6.133-174.494h-174.745c-7.639 0-13.854-6.215-13.854-13.853v-110.687c0-7.638 6.214-13.853 13.854-13.853h247.16c7.639 0 13.854 6.215 13.854 13.853v38.384l-36.621 36.621-15.755-22.395 21.805-30.952c2.368-3.362 1.564-8.006-1.798-10.375-3.364-2.368-8.007-1.562-10.374 1.799l-18.733 26.592-18.704-26.589c-2.364-3.362-7.006-4.171-10.373-1.806-3.363 2.366-4.172 7.01-1.805 10.374l21.773 30.95-25.601 36.341c-2.368 3.362-1.564 8.006 1.798 10.375 3.324 2.351 7.993 1.586 10.374-1.799l22.529-31.98 14.176 20.152-38.852 38.852c-.037.001-.072-.004-.108-.004zm-96.153 131.164-18.16 55.32c-.104.316-.193.635-.277.953h-.233v-56.274h18.67zm-78.592-71.104h45.031v56.213h-58.885v-42.36c0-7.639 6.215-13.853 13.854-13.853zm-13.854 113.525v-42.421h58.884v56.274h-45.03c-7.639 0-13.854-6.214-13.854-13.853zm90.382 19.492c-.598.198-1.128.071-1.573-.375-.446-.445-.572-.975-.375-1.573l11.643-35.468 25.773 25.773zm170.632-5.639h-45.031v-29.113l27.161-27.161h31.723v42.421c.001 7.639-6.213 13.853-13.853 13.853zm13.854-71.165h-16.832l16.832-16.832zm102.615-140.506-22.517 22.517-71.739-71.739 22.518-22.518c2.343-2.343 5.459-3.634 8.774-3.634s6.431 1.291 8.775 3.635l54.19 54.19c4.837 4.838 4.837 12.71-.001 17.549z"/></g></g></svg>