<svg height="512" viewBox="0 0 512 512" width="512" xmlns="http://www.w3.org/2000/svg"><g id="Filled_outline" data-name="Filled outline"><path d="m488 224v72h-32v200h-48l-8-96-8 96h-48v-200h-32v-72a32 32 0 0 1 32-32h112a32.026 32.026 0 0 1 30.84 23.42 32.366 32.366 0 0 1 1.16 8.58z" fill="#4d5e78"/><path d="m488 224v72h-32v200h-48l-8-96-8 96h-48v-138.42a459.486 459.486 0 0 0 142.84-142.16 32.366 32.366 0 0 1 1.16 8.58z" fill="#485870"/><path d="m376 192 24 40 24-40z" fill="#e0e0de"/><path d="m400.147 192a56 56 0 0 1 -56-56v-56a24 24 0 0 1 24-24h64a24 24 0 0 1 24 24v56a56 56 0 0 1 -56 56z" fill="#fec9a3"/><path d="m456 88h-112v-32a32 32 0 0 1 32-32h48a32 32 0 0 1 32 32z" fill="#404f66"/><path d="m448 112h-5.117a88.356 88.356 0 0 1 -21.441-2.64 88.42 88.42 0 0 0 -42.884 0 88.356 88.356 0 0 1 -21.441 2.64h-5.117a16 16 0 0 1 -16-16 16 16 0 0 1 16-16h96a16 16 0 0 1 16 16 16 16 0 0 1 -16 16z" fill="#4d5e78"/><path d="m344 368h112v16h-112z" fill="#404f66"/><path d="m448 256-72 40h112v-24z" fill="#feb784"/><path d="m376 296-24-16-40 16v40h152a24 24 0 0 0 24-24v-16z" fill="#fec9a3"/><path d="m24 240h40a0 0 0 0 1 0 0v88a0 0 0 0 1 0 0h-16a24 24 0 0 1 -24-24v-64a0 0 0 0 1 0 0z" fill="#fec093"/><path d="m108 24a68 68 0 0 1 68 68v124a0 0 0 0 1 0 0h-136a0 0 0 0 1 0 0v-124a68 68 0 0 1 68-68z" fill="#92563a"/><path d="m80.147 56h64a24 24 0 0 1 24 24v48a56 56 0 0 1 -56 56 56 56 0 0 1 -56-56v-48a24 24 0 0 1 24-24z" fill="#fec9a3"/><path d="m40 120 13.171-1.646a126.1 126.1 0 0 0 82.829-46.354l32 40 8-16v-8a64 64 0 0 0 -64-64h-10.388a61.612 61.612 0 0 0 -38.489 13.5 61.615 61.615 0 0 0 -23.123 48.112z" fill="#92563a"/><path d="m64 440h48v56h-48z" fill="#fec9a3"/><path d="m112 440h48v56h-48z" fill="#fec9a3"/><g fill="#f59898"><path d="m64 224-3.716 3.716a34.692 34.692 0 0 0 3.716 52.284v16h96v-16a34.692 34.692 0 0 0 3.716-52.284l-3.716-3.716z"/><path d="m200 216v24h-40v56h-96v-56h-40v-24a32 32 0 0 1 32-32h112a32.006 32.006 0 0 1 32 32z"/><path d="m184 440h-144l20.93-125.59 3.07-18.41h96z"/></g><path d="m184 440h-144l20.93-125.59q13.37-8.67 26.32-18.41h72.75z" fill="#ed9191"/><path d="m200 216v24h-40v56h-72.75a457.112 457.112 0 0 0 101.03-104.75 31.924 31.924 0 0 1 11.72 24.75z" fill="#ed9191"/><path d="m192 392h-24a8 8 0 0 1 -8-8v-144h40v144a8 8 0 0 1 -8 8z" fill="#fec9a3"/><path d="m80 184 32 64 32-64z" fill="#fec9a3"/><path d="m64 240h104v128h-104z" fill="#ffb531"/><path d="m168 336h-120a24 24 0 0 1 -24-24v-16h88l24-24 16 8-8 16h24z" fill="#fec9a3"/><path d="m224 48h64a24 24 0 0 1 24 24v56a56 56 0 0 1 -56 56 56 56 0 0 1 -56-56v-56a24 24 0 0 1 24-24z" fill="#fec9a3"/><path d="m312 104-24-40-11.645 3.882a100.79 100.79 0 0 1 -71.578-2.982 21.313 21.313 0 0 1 -10.668-29.122 21.314 21.314 0 0 1 19.064-11.778h66.827a32 32 0 0 1 32 32z" fill="#f98500"/><path d="m344 216v72h-32v72h-112v-72h-32v-72a32 32 0 0 1 32-32h112a31.955 31.955 0 0 1 32 32z" fill="#cfcfcd"/><path d="m344 216v72h-32v72h-112v-39.82c51.67-27.49 100.6-65.15 141.96-115.46a31.973 31.973 0 0 1 2.04 11.28z" fill="#c7c7c5"/><path d="m240 184 8 24-8 104 16 16 16-16-8-104 8-24z" fill="#348fd9"/><path d="m312 496h-48l-8-104-8 104h-48v-136h112z" fill="#4d5e78"/><path d="m216 288 84.845 38.566a16 16 0 0 0 6.621 1.434h20.534a16 16 0 0 0 16-16v-24l-112-32z" fill="#dbdbd9"/><path d="m216 288h-48v-40h40l24 8z" fill="#fec9a3"/><path d="m296 288-84.845 38.566a16 16 0 0 1 -6.621 1.434h-20.534a16 16 0 0 1 -16-16v-24l112-32z" fill="#e0e0de"/><path d="m296 288h48v-40h-40l-24 8z" fill="#fec9a3"/><path d="m64 440h96v16h-96z" fill="#fec093"/><path d="m104 440h16v56h-16z" fill="#feb784"/><path d="m200 360h112v16h-112z" fill="#485870"/><path d="m112.147 160a24.027 24.027 0 0 0 24-24h-16a8 8 0 0 1 -16 0h-16a24.027 24.027 0 0 0 24 24z"/><path d="m128.147 104h16v16h-16z"/><path d="m400 168a24.027 24.027 0 0 0 24-24h-16a8 8 0 0 1 -16 0h-16a24.027 24.027 0 0 0 24 24z"/><path d="m456 184h-13.586a63.85 63.85 0 0 0 21.736-48v-22.262a23.961 23.961 0 0 0 -.15-35.607v-22.131a40.045 40.045 0 0 0 -40-40h-48a40.045 40.045 0 0 0 -40 40h16a24.028 24.028 0 0 1 24-24h48a24.028 24.028 0 0 1 24 24v16h-96a23.984 23.984 0 0 0 -15.85 42v22a63.85 63.85 0 0 0 21.736 48h-13.886a40.115 40.115 0 0 0 -7.146.664 39.715 39.715 0 0 0 -24.854-8.664h-13.736a63.85 63.85 0 0 0 21.736-48v-72a40.045 40.045 0 0 0 -40-40h-66.827a29.314 29.314 0 0 0 -11.548 56.257 108.682 108.682 0 0 0 77.26 3.214l5.557-1.852 19.558 32.597v21.784a48 48 0 0 1 -96 0v-40h-16v40a63.85 63.85 0 0 0 21.736 48h-13.736a40.081 40.081 0 0 0 -16 3.353v-91.353a72.081 72.081 0 0 0 -72-72h-10.388a69.612 69.612 0 0 0 -69.612 69.612v82.388h16v-40.938l.15-.019v.957a63.85 63.85 0 0 0 21.736 48h-13.886a39.982 39.982 0 0 0 -40 40v24a8 8 0 0 0 8 8h18.342a42.6 42.6 0 0 0 13.658 35.748v4.252h-24v-24h-16v48a32.034 32.034 0 0 0 31.887 32l-15.778 94.685a8 8 0 0 0 7.891 9.315h16v48h16v-48h32v48h16v-48h32v48h16v-48h16a8 8 0 0 0 7.891-9.315l-6.447-38.685h6.556v96h16v-128h96v128h16v-152h16v152h16v-120h96v120h16v-152a32.036 32.036 0 0 0 32-32v-88a40.045 40.045 0 0 0 -40-40zm-161.14-124.116a7.993 7.993 0 0 0 -9.39-3.473l-11.645 3.881a92.7 92.7 0 0 1 -65.9-2.741 13.314 13.314 0 0 1 5.248-25.551h66.827a24.027 24.027 0 0 1 24 24v19.118zm61.578 213.46a7.988 7.988 0 0 0 -4.438-1.337v-8.007h24v-16h-24v-32a39.9 39.9 0 0 0 -3.327-16h22.8l20.527 34.216v43.743l-15.621 8.679zm-28.438 46.656h-20.53a8.032 8.032 0 0 1 -3.319-.712l-28.817-13.107 22.399-10.181h38.267v16a8.009 8.009 0 0 1 -8 8zm-120.155-.717a7.946 7.946 0 0 1 -3.311.717h-20.534a8.009 8.009 0 0 1 -8-8v-17.966l99.814-28.518 9.318 18.636zm-47.845 40.717h-88v-16h88zm-22.436-168-25 40h-1.134l-24.994-40zm69.136 64 14.017 4.672-2.3 4.6-42.417 12.122v-21.394zm58.35-64-7.708 11.562a8 8 0 0 0 -1.342 4.424 8 8 0 0 0 -1.344-4.424l-7.708-11.562zm40.25 64h30.7v24h-35.056l-9.663-19.328zm-49.321-47.386c.015-.2.023-.4.023-.6 0 .2.008.4.023.6l3.459 44.928-3.486 1-3.478-.994zm-87.979-49.414v16.8h-13.586a64.425 64.425 0 0 0 13.586-16.8zm-11.566 32.8h11.566v.007a39.95 39.95 0 0 0 -8 23.993v16h-28.566zm99.572 122.967 1.178.536-1.184 1.184-1.181-1.181zm153.865-114.967-9.871 16.451-9.871-16.451zm-1.871 87.374 40.561-22.534 31.439 12.576v10.584h-72zm72-63.374v36.184l-16-6.4v-21.784h-16v16h-24v12.182l-16 8.889v-34.855l20.53-34.216h27.47a24.027 24.027 0 0 1 24 24zm-128-136h96a8 8 0 0 1 0 16h-5.117a80.49 80.49 0 0 1 -19.5-2.4 96.747 96.747 0 0 0 -46.764 0c-1.581.395-3.19.746-4.785 1.043a80.614 80.614 0 0 1 -14.717 1.357h-5.117a8 8 0 0 1 0-16zm.15 48v-16h4.967a96.664 96.664 0 0 0 10.883-.642v8.642h16v-11.661a80.775 80.775 0 0 1 32 0v11.661h16v-8.627a96.29 96.29 0 0 0 10.883.627h5.117.15v16a48 48 0 0 1 -96 0zm-23.162 63.042a23.844 23.844 0 0 1 7.012 16.958v24h-16v-16h-16v16a8 8 0 0 0 -2.53.411l-23.828 7.943-2.458.7-3-38.916 12.097-18.138h27.719a23.871 23.871 0 0 1 16.988 7.042zm-128.988-7.042h27.719l12.093 18.14-3 38.916-2.457-.7-23.829-7.943a8 8 0 0 0 -2.526-.413v-16h-16v16h-16v-24a23.983 23.983 0 0 1 24-24zm-152-106.388a53.612 53.612 0 0 1 53.612-53.612h10.388a56.064 56.064 0 0 1 56 56v6.111l-1.564 3.128-24.189-30.239a8 8 0 0 0 -12.494 0 117.486 117.486 0 0 1 -77.575 43.414l-4.178.524zm16.15 42.388v-3.342a134.307 134.307 0 0 0 17.184-4.658h14.816v-6.1a133.325 133.325 0 0 0 39.619-29.378l24.381 30.476v13.002a48 48 0 0 1 -96 0zm-9.523 94.059a42.668 42.668 0 0 0 -7.383 9.941h-15.244v-16a23.983 23.983 0 0 1 24-24h11.566l25 40h-25.253l2.344-2.343-11.314-11.314zm17.373 57.941v-32h88v40h-3.056l2.211-4.422a8 8 0 0 0 -3.577-10.733l-16-8a8 8 0 0 0 -9.235 1.5l-21.656 21.655h-36.687zm-40 32v-8h80a8 8 0 0 0 5.657-2.343l19.923-19.923 3.687 1.844-4.422 8.844a8 8 0 0 0 7.155 11.578h16v24h-112a16.019 16.019 0 0 1 -16-16zm142.556 120h-125.113l9.618-57.715a7.955 7.955 0 0 0 4.939 1.715h88v8c0 .268 0 .536.017.8l.006.112a16.01 16.01 0 0 0 15.977 15.088h1.223zm-6.556-48v-.072.072-8a8 8 0 0 0 8-8v-33.376a23.889 23.889 0 0 0 8 1.376h8v48zm40-32v-16.256a23.845 23.845 0 0 0 6.466-1.9l24.8-11.272 11.08 11.08a8 8 0 0 0 11.314 0l11.08-11.08 24.808 11.283a24.017 24.017 0 0 0 6.452 1.89v16.255zm144-8h40v16h-40zm96 16h-40v-16h40zm32-48a16.019 16.019 0 0 1 -16 16h-118.131a23.9 23.9 0 0 0 6.131-16v-22.385s19.562 13.041 19.584 13.053a8.325 8.325 0 0 0 4.416 1.332h104z"/><path d="m400 392a8 8 0 0 0 -7.972 7.335l-8 96h31.944l-8-96a8 8 0 0 0 -7.972-7.335z"/><path d="m256 136a8.009 8.009 0 0 1 -8-8h-16a24 24 0 0 0 48 0h-16a8.009 8.009 0 0 1 -8 8z"/><path d="m224 96h16v16h-16z"/><path d="m272 96h16v16h-16z"/><path d="m256 384a8 8 0 0 0 -7.977 7.386l-8 104h31.954l-8-104a8 8 0 0 0 -7.977-7.386z"/></g></svg>