<svg id="Layer_1" enable-background="new 0 0 512 512" height="512" viewBox="0 0 512 512" width="512" xmlns="http://www.w3.org/2000/svg"><g><path d="m161.976 78.842c12.278 4.039 23.098 11.278 31.274 20.915l14.591 17.306c1.833 2.174 4.741 3.125 7.506 2.454 2.766-.671 4.913-2.848 5.543-5.621l5.048-22.189c10.02-44.455 51.641-76.722 98.965-76.722h.852c25.234.163 49.61 9.845 68.637 27.261 18.958 17.354 30.197 40.194 31.65 64.348.991 15.202-1.766 30.206-8.185 44.578l-6.485 14.422c-.993 2.207-.857 4.757.364 6.848 1.221 2.09 3.377 3.462 5.789 3.684l15.656 1.44c7.533.71 14.824 2.533 21.671 5.418.952.401 1.939.591 2.911.591 2.925 0 5.706-1.721 6.914-4.584 1.609-3.813-.18-8.207-3.996-9.815-8.257-3.479-17.036-5.676-26.108-6.532l-5.216-.479 2.19-4.871c7.429-16.634 10.613-34.021 9.465-51.638-3.479-57.87-55.139-105.268-115.208-105.656h-.9c-54.276 0-102.051 37.185-113.595 88.401l-1.704 7.491-4.896-5.808c-9.98-11.764-23.134-20.574-38.041-25.478-3.934-1.292-8.174.843-9.469 4.774-1.297 3.932.843 8.167 4.777 9.462z"/><path d="m493.654 193.777c-2.617-3.208-7.341-3.691-10.552-1.076-3.211 2.614-3.693 7.333-1.077 10.542 9.797 12.013 14.975 26.489 14.975 41.863 0 13.183-2.724 32.313-15.702 48.579-16.319 20.453-44.634 30.823-84.16 30.823h-58.877c7.503-13.488 11.78-29.003 11.78-45.497v-134.199c0-4.139-3.358-7.493-7.5-7.493h-31.963c-4.142 0-7.5 3.354-7.5 7.493s3.358 7.493 7.5 7.493h24.463v39.778c-12.124 16.291-31.204 25.931-51.614 25.931-20.098 0-38.655-9.126-50.939-25.043-.409-.556-.903-1.064-1.478-1.506-3.285-2.519-7.995-1.901-10.516 1.383-10.744 13.988-26.319 22.758-43.536 24.738v-23.836c0-22.853 18.609-41.445 41.483-41.445h56.979c4.142 0 7.5-3.354 7.5-7.493s-3.358-7.493-7.5-7.493h-56.979c-31.145 0-56.483 25.315-56.483 56.432v85.26c0 16.178 4.065 31.731 11.711 45.495l-87.088-.001c-42.184 0-71.581-41.846-71.581-79.402 0-28.254 18.623-53.816 46.365-63.616l10.087-3.603c3.708-1.325 5.759-5.29 4.696-9.079l-2.889-10.296c-3.702-13.052-3.215-26.115 1.439-38.805 9.102-24.564 31.84-41.903 57.927-44.171 4.126-.359 7.181-3.991 6.821-8.115-.359-4.122-3.988-7.18-8.122-6.815-31.838 2.768-59.586 23.925-70.702 53.922-5.773 15.742-6.377 31.916-1.801 48.05l.996 3.549-3.479 1.243c-33.697 11.903-56.338 43.142-56.338 77.736 0 22.471 8.675 45.681 23.801 63.68 16.642 19.802 38.938 30.708 62.781 30.708l97.442.001c1.732 2.05 3.558 4.037 5.479 5.956 4.338 4.334 9.025 8.192 13.997 11.548v20.605h-68.552c-1.11 0-2.206.246-3.209.721l-63.364 29.973c-2.62 1.239-4.291 3.876-4.291 6.772v89.441c0 1.987.79 3.893 2.197 5.299 1.406 1.405 3.314 2.194 5.303 2.194h30.225c4.142 0 7.5-3.354 7.5-7.493s-3.358-7.493-7.5-7.493h-22.726v-77.205l57.549-27.222h12.325c12.401 48.402 56.461 82.917 107.042 82.917s94.641-34.515 107.042-82.917h12.324l57.55 27.222v77.205h-296.782c-4.142 0-7.5 3.354-7.5 7.493s3.358 7.493 7.5 7.493h304.283c4.142 0 7.5-3.354 7.5-7.493v-89.441c0-2.896-1.67-5.533-4.291-6.772l-63.364-29.973c-1.003-.475-2.1-.721-3.209-.721h-68.552v-20.674c7.251-4.892 13.785-10.768 19.41-17.433h69.228c44.32 0 76.582-12.27 95.889-36.468 15.681-19.654 18.973-42.345 18.973-57.92 0-18.862-6.344-36.611-18.346-51.329zm-237.654 266.741c-42.411 0-79.514-28.068-91.477-67.931h14.598c11.5 32.113 42.328 54.08 76.879 54.08s65.379-21.968 76.879-54.08h14.598c-11.963 39.863-49.066 67.931-91.477 67.931zm45-67.931h15.709c-10.652 23.439-34.353 39.094-60.709 39.094s-50.057-15.656-60.709-39.094h15.709c4.142 0 7.5-3.354 7.5-7.493v-19.865c11.678 5.073 24.385 7.738 37.501 7.738 13.321 0 26.005-2.783 37.499-7.795v19.923c0 4.138 3.358 7.492 7.5 7.492zm-44.999-34.607c-21.113 0-40.963-8.213-55.892-23.129-14.929-14.915-23.151-34.746-23.151-55.84v-46.356c18.915-1.756 36.323-10.131 49.485-23.774 14.884 15.428 35.199 24.12 56.984 24.12 19.182 0 37.41-6.903 51.614-19.077v65.086c.001 43.543-35.457 78.969-79.04 78.97z"/></g></svg>