<svg id="Layer_1" enable-background="new 0 0 512.227 512.227" height="512" viewBox="0 0 512.227 512.227" width="512" xmlns="http://www.w3.org/2000/svg"><g><path d="m339.883 107.632c27.944-33.643 17.378-70.213-4.333-90.003-20.065-18.288-52.28-24.942-79.636-6.235-29.227-19.777-60.969-11.379-79.882 6.701-22.29 21.308-30.6 59.097-3.354 90.1.145.164.292.326.444.484.433.45 16.356 17.023 33.129 34.48l30.037 31.262c5.134 5.343 12.334 8.407 19.755 8.407 7.42 0 14.62-3.064 19.754-8.407 18.955-19.728 61.527-64.032 63.163-65.734.326-.341.634-.693.923-1.055zm-23.008-19.172c-4.566 4.752-41.922 43.628-60.832 63.308l-28.115-29.261c-15.764-16.406-30.778-32.033-32.877-34.218-15.387-17.729-10.229-37.187 1.758-48.646 17.235-16.475 37.116-9.304 48.903 1.845 5.889 5.569 15.16 5.459 20.916-.248 16.673-16.535 36.457-12.706 48.664-1.578 17.618 16.059 11.915 36.235 1.583 48.798z"/><path d="m458.559 332.744c10.267-12.975 16.415-29.324 16.415-47.086v-43.325c0-33.789-27.607-61.279-61.542-61.279h-30.052c-33.935 0-61.542 27.49-61.542 61.279v43.325c0 17.762 6.148 34.111 16.415 47.086-30.279 4.589-53.553 30.687-53.553 62.098v102.449c0 8.249 6.716 14.936 15 14.936h197.413c8.284 0 15-6.687 15-14.936v-102.449c0-31.411-23.275-57.509-53.554-62.098zm-60.153 59.426-21.579-30.272h43.158zm-37.733-128.263c24.312 10.035 52.617 15.779 84.302 17.145v4.606c0 25.568-20.891 46.369-46.568 46.369s-46.567-20.801-46.567-46.369v-25.688c2.706 1.3 5.645 2.621 8.833 3.937zm22.708-52.983h30.052c17.393 0 31.542 14.09 31.542 31.408v8.812c-48.195-2.351-76.933-15.653-89.604-23.224 5.254-10.085 15.833-16.996 28.01-16.996zm-68.681 183.918c0-15.708 11.102-28.876 25.902-32.153l42.829 60.082.302 59.583h-69.033zm167.413 87.513h-68.38l-.302-59.654 42.779-60.012c14.8 3.277 25.903 16.445 25.903 32.153z"/><path d="m173.972 331.938c10.266-12.975 16.414-29.323 16.414-47.085v-43.326c0-19.564-9.267-37.003-23.647-48.23.038-1.182.038-2.373.037-3.628v-.617c0-29.708-24.272-53.877-54.108-53.877s-54.108 24.168-54.108 53.876c0 2.11.003 4.063.145 6.04-13.121 11.246-21.454 27.885-21.454 46.436v43.326c0 17.762 6.149 34.11 16.415 47.085-30.279 4.589-53.552 30.687-53.552 62.098v102.45c0 8.249 6.716 14.936 15 14.936h197.412c8.284 0 15-6.687 15-14.936v-102.45c-.001-31.411-23.275-57.509-53.554-62.098zm-9.533 29.154c3.519 0 6.91.555 10.094 1.573-13.381 43.395-108.679 46.85-118.547-.775 1.207-1.689 105.125-.435 108.453-.798zm-97.188-76.24v-4.601c35.285-1.642 65.109-7.809 93.136-20.696v25.297c0 25.568-20.89 46.368-46.567 46.368s-46.569-20.8-46.569-46.368zm0-43.326c0-17.318 14.149-31.407 31.542-31.407h30.052c12.335 0 23.032 7.09 28.214 17.389-12.72 7.447-41.545 20.527-89.808 22.836zm45.417-76.48c10.298 0 19.104 6.465 22.552 15.531-2.096-.216-4.223-.329-6.375-.329h-30.052c-2.987 0-5.921.224-8.795.636 3.364-9.228 12.256-15.838 22.67-15.838zm84.857 316.504h-167.412v-87.514c0-3.793.655-7.435 1.845-10.829 2.942 6.174 7.062 12.573 12.838 18.508 15.639 16.067 38.474 24.213 67.871 24.213 44.913 0 68.163-18.574 79.759-34.157 1.497-2.012 2.836-4.023 4.041-6.009.689 2.645 1.058 5.417 1.058 8.273z"/></g></svg>