<svg id="Capa_1" enable-background="new 0 0 512 512" height="512" viewBox="0 0 512 512" width="512" xmlns="http://www.w3.org/2000/svg"><path d="m117.293 323.805c0 4.146 3.361 7.508 7.508 7.508h190.367c4.146 0 7.508-3.361 7.508-7.508s-3.361-7.508-7.508-7.508h-190.367c-4.147 0-7.508 3.361-7.508 7.508z"/><path d="m124.801 364.346h169.43c4.146 0 7.508-3.361 7.508-7.508s-3.361-7.508-7.508-7.508h-169.43c-4.146 0-7.508 3.361-7.508 7.508s3.361 7.508 7.508 7.508z"/><path d="m124.801 397.381h169.345c4.146 0 7.508-3.361 7.508-7.508s-3.361-7.508-7.508-7.508h-169.345c-4.146 0-7.508 3.361-7.508 7.508s3.361 7.508 7.508 7.508z"/><path d="m124.801 430.415h169.43c4.146 0 7.508-3.361 7.508-7.508s-3.361-7.508-7.508-7.508h-169.43c-4.146 0-7.508 3.361-7.508 7.508s3.361 7.508 7.508 7.508z"/><path d="m124.801 463.449h190.367c4.146 0 7.508-3.361 7.508-7.508 0-4.146-3.361-7.508-7.508-7.508h-190.367c-4.146 0-7.508 3.361-7.508 7.508s3.361 7.508 7.508 7.508z"/><path d="m401.412 308.695c-.728 0-1.451.034-2.176.053v-282.413c0-14.521-11.814-26.335-26.335-26.335h-258.246c-.048 0-.095.006-.142.007-.077.002-.154.007-.231.011-1.369.068-2.687.506-3.824 1.273-.063.043-.125.087-.187.132-.266.192-.526.395-.767.623l-77.737 73.319c-1.316 1.239-2.173 3.037-2.324 4.838-.007.083-.009.166-.013.25-.006.125-.019.249-.019.374v60.555c0 4.146 3.361 7.508 7.508 7.508s7.508-3.361 7.508-7.508v-53.048h51.406c14.519 0 26.331-11.812 26.331-26.331v-46.987h250.738c6.241 0 11.319 5.078 11.319 11.319v284.195c-15.121 3.245-29.015 10.747-40.21 21.942-2.932 2.932-2.932 7.686 0 10.617 2.932 2.933 7.686 2.932 10.617 0 12.496-12.497 29.111-19.379 46.784-19.379 36.482 0 66.162 29.681 66.162 66.163s-29.68 66.163-66.162 66.163-66.163-29.681-66.163-66.163c0-6.9 1.055-13.694 3.137-20.195 1.264-3.949-.912-8.175-4.861-9.439-3.946-1.265-8.175.911-9.439 4.86-2.556 7.983-3.852 16.318-3.852 24.774 0 38.863 27.457 71.419 63.986 79.329v16.463c0 6.241-5.078 11.319-11.319 11.319h-317.156c-6.241 0-11.319-5.078-11.319-11.319v-309.623c0-4.146-3.361-7.508-7.508-7.508s-7.508 3.361-7.508 7.508v309.622c0 14.522 11.814 26.336 26.335 26.336h317.156c14.521 0 26.335-11.814 26.335-26.335v-14.669c.725.019 1.446.055 2.176.055 44.762 0 81.178-36.417 81.178-81.178-.001-44.762-36.417-81.178-81.178-81.178zm-294.265-246.692c0 6.239-5.076 11.315-11.315 11.315h-40.012l6.577-6.203 44.75-42.207z"/><path d="m444.663 389.384c1.355 0 2.699-.367 3.882-1.082 1.831-1.106 3.104-2.942 3.498-5.044l3.28-17.52c.763-4.076-1.922-7.998-5.998-8.761-3.347-.628-6.583 1.071-8.059 3.952-9.211-12.631-24.1-20.335-39.854-20.335-27.173 0-49.279 22.106-49.279 49.279s22.107 49.279 49.279 49.279c4.146 0 7.508-3.361 7.508-7.508s-3.361-7.508-7.508-7.508c-18.893 0-34.264-15.37-34.264-34.263s15.371-34.263 34.264-34.263c10.867 0 20.796 4.996 27.254 13.513-3.79-.859-7.663 1.329-8.826 5.107-1.221 3.963 1.002 8.164 4.965 9.385l17.649 5.437c.722.222 1.467.332 2.209.332z"/><path d="m401.412 361.844c-4.146 0-7.508 3.361-7.508 7.508v27.779c0 2.7 1.45 5.192 3.796 6.526l19.365 11.011c1.172.666 2.446.983 3.705.983 2.612 0 5.15-1.365 6.533-3.798 2.049-3.605.789-8.188-2.815-10.238l-15.568-8.852v-23.411c-.001-4.147-3.362-7.508-7.508-7.508z"/><path d="m290.073 112.135c0-4.382-2.238-8.353-5.988-10.621s-8.304-2.408-12.186-.374l-6.845 3.587c-3.269 1.714-7.171 1.713-10.44 0l-5.335-2.796c-7.629-3.998-16.737-3.997-24.367 0l-5.331 2.794c-3.269 1.713-7.172 1.714-10.442 0l-5.329-2.792c-7.63-4-16.74-4-24.368 0l-5.33 2.793c-3.269 1.713-7.173 1.714-10.442 0l-6.839-3.584c-3.88-2.034-8.437-1.895-12.187.374-3.75 2.268-5.988 6.238-5.988 10.621l-.056 122.926c0 31.308 25.471 56.779 56.779 56.779h37.973c31.308 0 56.779-25.471 56.779-56.779zm-136.416 4.278 3.05 1.599c7.628 3.998 16.738 3.998 24.368 0l5.331-2.793c3.269-1.714 7.171-1.713 10.441 0l5.33 2.793c7.628 3.998 16.738 3.998 24.368 0l5.331-2.794c3.27-1.714 7.172-1.713 10.441 0l5.335 2.796c7.628 3.997 16.736 3.998 24.366 0l3.056-1.602v74.988c-2.466-4.402-4.559-9.496-5.351-14.928-.466-3.199-2.248-6.08-4.887-7.903-2.649-1.83-5.989-2.479-9.162-1.78-5.47 1.205-6.599 1.439-6.818 1.484-9.915 1.685-19.809 2.591-29.405 2.695l-5.017-.046c-.046-.001-.092-.001-.138 0l-5.017.046c-9.618-.104-19.532-1.014-29.372-2.688-.162-.032-1.136-.232-6.854-1.491-3.145-.693-6.465-.04-9.112 1.786-2.667 1.839-4.467 4.739-4.942 7.954-.798 5.412-2.885 10.485-5.342 14.873zm121.474 118.65c0 23.037-18.742 41.779-41.779 41.779h-37.973c-23.037 0-41.779-18.742-41.779-41.779v-18.996c.265-.22.521-.454.764-.707 5.778-6.03 15.518-18.029 18.84-33.182 3.582.783 3.865.832 4.088.87 10.741 1.829 21.476 2.811 31.906 2.919.049.001.098.002.146 0l5.021-.046 5.021.046h.146c10.43-.108 21.165-1.09 31.915-2.92.208-.036.502-.086 4.079-.869 3.322 15.145 13.055 27.141 18.835 33.176.242.252.506.472.77.692z"/><path d="m188.014 215.383c-4.142 0-7.5 3.358-7.5 7.5v9.826c0 4.142 3.358 7.5 7.5 7.5s7.5-3.358 7.5-7.5v-9.826c0-4.142-3.358-7.5-7.5-7.5z"/><path d="m240.717 215.383c-4.142 0-7.5 3.358-7.5 7.5v9.826c0 4.142 3.358 7.5 7.5 7.5s7.5-3.358 7.5-7.5v-9.826c0-4.142-3.358-7.5-7.5-7.5z"/></svg>